SplineFontDB: 3.2
FontName: AmbiviumCyr-Regular
FullName: Ambivium Cyrillic Regular
FamilyName: Ambivium Cyrillic
Weight: Regular
Copyright: Copyright (c) 2015-19 by Maurizio M. Gavioli.\nAdaptation of Junction font by Caroline Hadilaksono, copyright (c) 2010 by Caroline Hadilaksono. SIL Open Font License (OFL).
FontLog: "2015-04-22: Initial web version from cleaned-up Junction originals (MMG)"
Version: 001.002
ItalicAngle: 0
UnderlinePosition: -100
UnderlineWidth: 50
Ascent: 750
Descent: 250
InvalidEm: 0
sfntRevision: 0x00010000
LayerCount: 2
Layer: 0 0 "Back" 1
Layer: 1 0 "Fore" 0
XUID: [1021 883 739783980 2500863]
StyleMap: 0x0000
FSType: 4
OS2Version: 3
OS2_WeightWidthSlopeOnly: 0
OS2_UseTypoMetrics: 1
CreationTime: 1395274860
ModificationTime: 1595760519
PfmFamily: 17
TTFWeight: 500
TTFWidth: 5
LineGap: 0
VLineGap: 0
Panose: 2 11 6 3 0 0 0 2 0 4
OS2TypoAscent: 750
OS2TypoAOffset: 0
OS2TypoDescent: -250
OS2TypoDOffset: 0
OS2TypoLinegap: 0
OS2WinAscent: 841
OS2WinAOffset: 0
OS2WinDescent: 275
OS2WinDOffset: 0
HheadAscent: 750
HheadAOffset: 0
HheadDescent: -250
HheadDOffset: 0
OS2SubXSize: 650
OS2SubYSize: 600
OS2SubXOff: 0
OS2SubYOff: 75
OS2SupXSize: 650
OS2SupYSize: 600
OS2SupXOff: 0
OS2SupYOff: 350
OS2StrikeYSize: 50
OS2StrikeYPos: 330
OS2CapHeight: 770
OS2XHeight: 550
OS2Vendor: 'pyrs'
OS2CodePages: 20000083.00000000
OS2UnicodeRanges: 00000007.00000000.00000000.00000000
Lookup: 1 0 0 "aaltLatinlookup" { "aaltLatinlookup subtable"  } ['aalt' ('latn' <'dflt' > ) ]
Lookup: 1 0 0 "c2scLatinlookup" { "c2scLatinlookup subtable"  } ['c2sc' ('latn' <'dflt' > ) ]
Lookup: 4 0 1 "ligaLatinlookup" { "ligaLatinlookup subtable"  } ['liga' ('latn' <'dflt' > ) ]
Lookup: 1 0 0 "lnumLatinlookup" { "lnumLatinlookup subtable"  } ['lnum' ('latn' <'dflt' > ) ]
Lookup: 1 0 0 "smcpLatinlookup" { "smcpLatinlookup subtable"  } ['smcp' ('latn' <'dflt' > ) ]

StartChar: h
Encoding: 104 104 1
Width: 604
Flags: W
HStem: 0 21G<84 168 451 535> 478 84<316.078 440.027>
VStem: 84 84<0 368.998 444 820> 451 84<0 470.174>
LayerCount: 2
Fore
SplineSet
168 0 m 1
 84 0 l 1
 84 820 l 1
 168 820 l 1
 168 444 l 1
 229 503 318 562 408 562 c 3
 499 562 535 497 535 391 c 2
 535 0 l 1
 451 0 l 1
 451 391 l 2
 451 445 439 478 408 478 c 3
 304 478 214 395 168 347 c 1
 168 0 l 1
EndSplineSet
Validated: 1
Substitution2: "smcpLatinlookup subtable" h.sc
EndChar

StartChar: k
Encoding: 107 107 4
Width: 553
Flags: MW
VStem: 84 84<0 269.999 356 820>
LayerCount: 2
Fore
SplineSet
569 0 m 2
 456 0 l 1
 429 9 300 166 240 233 c 0
 219 256 201 270 186 270 c 3
 177 270 171 269 168 268 c 1
 168 0 l 1
 84 0 l 1
 84 820 l 1
 168 820 l 1
 168 356 l 1
 178 363 351 479 387 550 c 1
 472 550 l 1
 457 493 329 390 244 326 c 1
 262 319 282 307 300 287 c 0
 366 210 552 0 569 0 c 2
EndSplineSet
Validated: 1
Substitution2: "smcpLatinlookup subtable" k.sc
EndChar

StartChar: l
Encoding: 108 108 5
Width: 278
Flags: W
HStem: -12 71<180 241>
VStem: 84 83<73.048 820>
LayerCount: 2
Fore
SplineSet
84 820 m 1
 167 820 l 1
 167 146 l 2
 167 123 167 93 180 80 c 0
 195 65 216 59 244 59 c 1
 241 -12 l 1
 210 -12 150 -9 119 22 c 0
 84 57 84 109 84 146 c 2
 84 820 l 1
EndSplineSet
Validated: 1
Substitution2: "smcpLatinlookup subtable" l.sc
EndChar

StartChar: m
Encoding: 109 109 6
Width: 907
Flags: MW
HStem: 478 84<293.17 407.153 626.43 743.027>
VStem: 84 84<0 373.482 451 550> 419 84<0 373.482> 754 84<0 470.174>
CounterMasks: 1 70
LayerCount: 2
Fore
SplineSet
168 0 m 1
 84 0 l 1
 84 550 l 1
 168 550 l 1
 168 451 l 1
 220 508 289 562 376 562 c 3
 452 562 490 526 500 448 c 1
 552 506 623 562 711 562 c 3
 802 562 838 497 838 391 c 2
 838 0 l 1
 754 0 l 1
 754 391 l 2
 754 445 742 478 711 478 c 3
 611 478 543 397 503 349 c 1
 503 0 l 1
 419 0 l 1
 419 391 l 2
 419 445 407 478 376 478 c 3
 281 478 208 397 168 349 c 1
 168 0 l 1
EndSplineSet
Validated: 1
Substitution2: "smcpLatinlookup subtable" m.sc
EndChar

StartChar: n
Encoding: 110 110 7
Width: 604
Flags: MW
HStem: 478 84<315.571 440.027>
VStem: 84 84<0 368.133 444 550> 451 84<0 470.174>
LayerCount: 2
Fore
SplineSet
168 0 m 1
 84 0 l 1
 84 550 l 1
 168 550 l 1
 168 444 l 1
 229 503 318 562 408 562 c 3
 499 562 535 497 535 391 c 2
 535 0 l 1
 451 0 l 1
 451 391 l 2
 451 445 439 478 408 478 c 3
 308 478 221 401 168 347 c 1
 168 0 l 1
EndSplineSet
Validated: 1
Substitution2: "smcpLatinlookup subtable" n.sc
EndChar

StartChar: o
Encoding: 111 111 8
Width: 586
Flags: W
HStem: -12 68<220.552 365.448> 493 69<220.552 365.448>
VStem: 54 84<153.542 395.383> 448 84<153.879 394.075>
LayerCount: 2
Fore
SplineSet
54 275 m 3
 54 485 173 562 293 562 c 3
 413 562 532 484 532 275 c 3
 532 63 413 -12 293 -12 c 7
 173 -12 54 58 54 275 c 3
448 275 m 3
 448 430 369 493 293 493 c 3
 217 493 138 435 138 275 c 3
 138 117 217 56 293 56 c 3
 369 56 448 114 448 275 c 3
EndSplineSet
Validated: 1
Substitution2: "smcpLatinlookup subtable" o.sc
EndChar

StartChar: p
Encoding: 112 112 9
Width: 622
Flags: W
HStem: -12 82<256.27 406.528> 480 82<280.249 423.098>
VStem: 84 82<-260 64 136.11 380.564 458 550> 484 84<163.493 399.48>
LayerCount: 2
Fore
SplineSet
166 -260 m 1
 84 -260 l 1
 84 550 l 1
 166 550 l 1
 166 458 l 1
 211 516 280 562 370 562 c 3
 492 562 568 429 568 284 c 3
 568 97 480 -12 337 -12 c 3
 287 -12 222 19 166 64 c 1
 166 -260 l 1
370 480 m 3
 266 480 198 400 166 350 c 1
 166 156 l 1
 215 107 285 70 337 70 c 3
 426 70 484 149 484 284 c 3
 484 385 440 480 370 480 c 3
EndSplineSet
Validated: 1
Substitution2: "smcpLatinlookup subtable" p.sc
EndChar

StartChar: q
Encoding: 113 113 10
Width: 624
Flags: W
HStem: -12 79<201.426 335.838> 484 78<215.472 359.783>
VStem: 54 84<149.978 390.551> 456 84<-260 105 177.865 411.648 496 550>
LayerCount: 2
Fore
SplineSet
252 -12 m 3
 130 -12 54 121 54 266 c 3
 54 453 142 562 285 562 c 3
 334 562 400 541 456 496 c 1
 456 550 l 1
 540 550 l 1
 540 -260 l 1
 456 -260 l 1
 456 105 l 1
 410 48 341 -12 252 -12 c 3
252 67 m 3
 356 67 424 159 456 210 c 1
 456 394 l 1
 406 442 337 484 285 484 c 3
 196 484 138 401 138 266 c 3
 138 165 182 67 252 67 c 3
EndSplineSet
Validated: 1
Substitution2: "smcpLatinlookup subtable" q.sc
EndChar

StartChar: r
Encoding: 114 114 11
Width: 436
Flags: MW
HStem: 482 80<252.529 371.439>
VStem: 84 84<0 385.355 475 550>
LayerCount: 2
Fore
SplineSet
84 550 m 1
 168 550 l 1
 168 475 l 1
 203 535 251 562 307 562 c 3
 393 562 440 507 440 507 c 1
 382 451 l 1
 382 451 358 482 311 482 c 3
 247 482 197 405 168 344 c 1
 168 0 l 1
 84 0 l 1
 84 550 l 1
EndSplineSet
Validated: 1
Substitution2: "smcpLatinlookup subtable" r.sc
EndChar

StartChar: s
Encoding: 115 115 12
Width: 502
Flags: W
HStem: -12 70<174.629 334.337> 492 70<183.99 335.86>
VStem: 73 83<364.286 464.875> 370 83<93.4191 200.046>
LayerCount: 2
Fore
SplineSet
156 405 m 3
 156 358 212 340 270 323 c 0
 359 297 453 269 453 151 c 3
 453 40 356 -12 259 -12 c 3
 178 -12 91 25 44 100 c 1
 102 147 l 1
 132 92 197 59 261 58 c 0
 316 58 370 88 370 151 c 3
 370 208 305 229 246 247 c 0
 162 272 73 302 73 405 c 3
 73 539 195 562 248 562 c 3
 320 562 382 537 421 498 c 1
 367 446 l 1
 341 474 297 492 248 492 c 3
 219 492 156 479 156 405 c 3
EndSplineSet
Validated: 1
Substitution2: "smcpLatinlookup subtable" s.sc
EndChar

StartChar: t
Encoding: 116 116 13
Width: 398
Flags: W
HStem: -12 73<211.786 311.822> 482 70<44 114 198 330>
VStem: 114 84<74.0234 482 552 750>
LayerCount: 2
Fore
SplineSet
44 482 m 1
 44 552 l 1
 114 552 l 1
 114 750 l 1
 198 750 l 1
 198 552 l 1
 330 552 l 1
 330 482 l 1
 198 482 l 1
 198 160 l 2
 198 123 198 61 250 61 c 3
 283 61 308 76 333 100 c 1
 384 51 l 1
 340 5 291 -12 228 -12 c 3
 144 -12 114 56 114 160 c 2
 114 482 l 1
 44 482 l 1
EndSplineSet
Validated: 1
Substitution2: "smcpLatinlookup subtable" t.sc
EndChar

StartChar: u
Encoding: 117 117 14
Width: 604
Flags: MW
HStem: -12 81<164.313 287.868>
VStem: 69 84<79.8259 550> 436 84<0 97 180.494 550>
LayerCount: 2
Fore
SplineSet
196 69 m 3
 295 69 383 147 436 202 c 1
 436 550 l 1
 520 550 l 1
 520 0 l 1
 436 0 l 1
 436 97 l 1
 374 38 285 -12 196 -12 c 3
 105 -12 69 53 69 159 c 2
 69 550 l 1
 153 550 l 1
 153 159 l 2
 153 105 165 69 196 69 c 3
EndSplineSet
Validated: 1
Substitution2: "smcpLatinlookup subtable" u.sc
EndChar

StartChar: v
Encoding: 118 118 15
Width: 522
Flags: MW
DStem2: 255 125 225 0 0.356702 -0.934218<-213.604 18.8203>
LayerCount: 2
Fore
SplineSet
15 550 m 1
 112 550 l 1
 255 125 l 1
 258 106 l 2
 259 101 260 122 261 125 c 0
 306 296 390 524 419 550 c 1
 510 550 l 1
 432 466 298 0 298 0 c 1
 225 0 l 1
 15 550 l 1
EndSplineSet
Validated: 1
Substitution2: "smcpLatinlookup subtable" v.sc
EndChar

StartChar: w
Encoding: 119 119 16
Width: 777
Flags: MW
DStem2: 116 550 25 550 0.277719 -0.960662<0 424.143> 420 550 384 424 0.278608 -0.960405<110.981 447.646>
LayerCount: 2
Fore
SplineSet
263 0 m 1
 184 0 l 1
 25 550 l 1
 116 550 l 1
 225 140 l 1
 228 119 l 1
 231 140 l 1
 348 550 l 1
 420 550 l 1
 537 140 l 1
 541 119 l 1
 544 140 l 1
 584 291 651 540 670 550 c 1
 752 550 l 1
 725 523 578 0 578 0 c 1
 507 0 l 1
 384 424 l 1
 263 0 l 1
EndSplineSet
Validated: 1
Substitution2: "smcpLatinlookup subtable" w.sc
EndChar

StartChar: x
Encoding: 120 120 17
Width: 582
Flags: MW
DStem2: 160 550 54 550 0.571458 -0.820631<0 241.024 354.52 609.641>
LayerCount: 2
Fore
SplineSet
54 550 m 5
 160 550 l 1
 296 351 l 1
 343 421 431 546 444 550 c 1
 548 550 l 1
 527 540 391 350 343 282 c 1
 543 0 l 1
 437 0 l 1
 295 212 l 1
 252 147 152 4 138 0 c 1
 34 0 l 1
 56 10 213 230 248 281 c 1
 54 550 l 5
EndSplineSet
Validated: 1
Substitution2: "smcpLatinlookup subtable" x.sc
EndChar

StartChar: y
Encoding: 121 121 18
Width: 513
Flags: W
HStem: -275 73<13.9863 74.3164>
DStem2: 105 550 16 550 0.358479 -0.933538<0 413.759>
LayerCount: 2
Fore
SplineSet
16 550 m 1
 105 550 l 1
 254 164 l 1
 323 333 407 534 426 550 c 1
 521 550 l 1
 493 523 478 496 260 -39 c 0
 235 -101 209 -165 158 -214 c 0
 104 -266 51 -273 16 -275 c 1
 -5 -202 l 1
 56 -198 80 -180 101 -159 c 0
 125 -136 143 -109 181 -17 c 2
 208 50 l 1
 16 550 l 1
EndSplineSet
Validated: 1
Substitution2: "smcpLatinlookup subtable" y.sc
EndChar

StartChar: z
Encoding: 122 122 19
Width: 516
Flags: W
HStem: 0 71<150 405> 480 70<49 359>
DStem2: 49 71 150 71 0.604045 0.79695<61.0086 513.207>
LayerCount: 2
Fore
SplineSet
477 88 m 1
 477 17 l 1
 464 2 405 0 405 0 c 1
 49 0 l 1
 49 71 l 1
 359 480 l 1
 49 480 l 1
 49 550 l 1
 460 550 l 1
 460 480 l 1
 150 71 l 1
 406 71 l 1
 406 71 461 71 477 88 c 1
EndSplineSet
Validated: 1
Substitution2: "smcpLatinlookup subtable" z.sc
EndChar

StartChar: d
Encoding: 100 100 20
Width: 639
Flags: W
HStem: -8 81<200.836 342.893> 480 82<217.394 363.195>
VStem: 54 86<151.447 386.507> 458 84<174.788 408.414 486 820>
LayerCount: 2
Fore
SplineSet
254 -8 m 3
 132 -8 54 121 54 266 c 3
 54 453 144 562 287 562 c 3
 341 562 401 535 458 486 c 1
 458 820 l 1
 542 820 l 1
 542 132 l 1
 542 132 542 59 600 40 c 1
 547 -14 l 1
 478 11 467 62 463 93 c 1
 410 33 340 -8 254 -8 c 3
254 73 m 3
 360 73 426 155 458 206 c 1
 458 389 l 1
 403 443 339 480 287 480 c 3
 198 480 140 401 140 266 c 3
 140 165 184 73 254 73 c 3
EndSplineSet
Validated: 1
Substitution2: "smcpLatinlookup subtable" d.sc
EndChar

StartChar: period
Encoding: 46 46 21
Width: 205
Flags: W
HStem: -7 117<57.0994 148.475>
VStem: 44 117<6.09937 97.4749>
LayerCount: 2
Fore
SplineSet
44 53 m 3
 44 86 69 110 104 110 c 3
 137 110 161 86 161 53 c 3
 161 18 137 -7 104 -7 c 3
 69 -7 44 18 44 53 c 3
EndSplineSet
Validated: 1
EndChar

StartChar: comma
Encoding: 44 44 22
Width: 200
Flags: W
HStem: -7 111<50.9134 98.9582>
VStem: 39 117<6.33597 89.0702>
LayerCount: 2
Fore
SplineSet
39 49 m 3
 39 81 63 104 95 104 c 3
 138 104 156 68 156 22 c 3
 156 -33 129 -96 87 -148 c 1
 41 -123 l 1
 70 -87 92 -51 99 -7 c 1
 63 -7 39 17 39 49 c 3
EndSplineSet
Validated: 1
EndChar

StartChar: colon
Encoding: 58 58 23
Width: 255
Flags: W
HStem: -7 117<82.0994 173.475> 353 117<82.0994 173.475>
VStem: 69 117<6.09937 97.4749 366.099 457.475>
LayerCount: 2
Fore
SplineSet
69 53 m 3
 69 86 94 110 129 110 c 3
 162 110 186 86 186 53 c 3
 186 18 162 -7 129 -7 c 3
 94 -7 69 18 69 53 c 3
69 413 m 3
 69 446 94 470 129 470 c 3
 162 470 186 446 186 413 c 3
 186 378 162 353 129 353 c 3
 94 353 69 378 69 413 c 3
EndSplineSet
Validated: 1
EndChar

StartChar: semicolon
Encoding: 59 59 24
Width: 260
Flags: W
HStem: -7 111<85.9134 133.958> 353 117<82.0994 173.475>
VStem: 74 117<6.33597 89.0702 369.875 453.875>
LayerCount: 2
Fore
SplineSet
74 49 m 3
 74 81 98 104 130 104 c 3
 173 104 191 68 191 22 c 3
 191 -33 164 -96 122 -148 c 1
 76 -123 l 1
 105 -87 127 -51 134 -7 c 1
 98 -7 74 17 74 49 c 3
69 413 m 3
 69 446 94 470 129 470 c 3
 162 470 186 446 186 413 c 3
 186 378 162 353 129 353 c 3
 94 353 69 378 69 413 c 3
EndSplineSet
Validated: 1
EndChar

StartChar: question
Encoding: 63 63 25
Width: 502
Flags: W
HStem: -7 111<205.613 293.771> 750 70<186.311 343.867>
VStem: 157 77<243.66 336.796> 194 111<4.6131 92.7707> 383 84<568.896 711.544>
LayerCount: 2
Fore
SplineSet
383 640 m 3xe8
 383 680 372 750 259 750 c 3
 156 750 93 630 93 630 c 1
 40 680 l 1
 40 680 119 820 259 820 c 3
 438 820 467 706 467 640 c 3
 467 532 385 461 314 397 c 0
 270 357 234 321 234 293 c 3
 234 261 253 243 287 213 c 1
 229 165 l 1
 187 203 157 232 157 294 c 3
 157 358 202 404 261 457 c 0
 318 509 383 570 383 640 c 3xe8
194 49 m 3xd8
 194 81 218 104 250 104 c 3
 282 104 305 81 305 49 c 3
 305 17 282 -7 250 -7 c 3
 218 -7 194 17 194 49 c 3xd8
EndSplineSet
Validated: 1
EndChar

StartChar: endash
Encoding: 8211 8211 26
Width: 659
Flags: W
HStem: 243 65<54 605>
LayerCount: 2
Fore
SplineSet
605 308 m 1
 605 243 l 1
 54 243 l 1
 54 308 l 1
 605 308 l 1
EndSplineSet
Validated: 1
EndChar

StartChar: hyphen
Encoding: 45 45 27
Width: 344
Flags: MW
HStem: 240 70<54 290>
LayerCount: 2
Fore
SplineSet
290 310 m 1
 290 240 l 1
 54 240 l 1
 54 310 l 1
 290 310 l 1
EndSplineSet
Validated: 1
EndChar

StartChar: Z
Encoding: 90 90 28
Width: 611
Flags: W
HStem: 0 82<156 444> 688 82<59 434>
DStem2: 49 82 156 82 0.534986 0.844861<57.2435 717.955>
LayerCount: 2
Fore
SplineSet
562 98 m 1
 562 15 l 1
 534 0 444 0 444 0 c 1
 49 0 l 1
 49 82 l 1
 434 688 l 1
 59 688 l 1
 59 770 l 1
 541 770 l 1
 541 690 l 1
 156 82 l 1
 446 82 l 1
 446 82 518 82 562 98 c 1
EndSplineSet
Validated: 1
Substitution2: "c2scLatinlookup subtable" z.sc
EndChar

StartChar: D
Encoding: 68 68 29
Width: 712
Flags: W
HStem: 0 76<172 428.734> 700 75<172.62 418.303>
VStem: 84 88<76 692.881> 565 88<242.129 539.781>
LayerCount: 2
Fore
SplineSet
84 0 m 1
 84 757 l 1
 181 770 229 775 291 775 c 3
 476 775 653 717 653 380 c 3
 653 138 524 0 339 0 c 2
 84 0 l 1
565 380 m 3
 565 569 507 700 293 700 c 3
 228 700 187 692 172 689 c 1
 172 76 l 1
 172 76 339 76 339 76 c 2
 468 76 565 190 565 380 c 3
EndSplineSet
Validated: 1
Substitution2: "c2scLatinlookup subtable" d.sc
EndChar

StartChar: A
Encoding: 65 65 30
Width: 708
Flags: MW
HStem: 262 76<241 466>
DStem2: 24 0 117 0 0.346044 0.938218<32.1821 311.216 392.209 743.826> 400 770 360 624 0.346044 -0.938218<123.138 428.149 509.143 788.522>
LayerCount: 2
Fore
SplineSet
308 770 m 1
 400 770 l 1
 684 0 l 1
 591 0 l 1
 494 262 l 1
 213 262 l 1
 117 0 l 1
 24 0 l 1
 308 770 l 1
354 672 m 1
 353 653 350 635 347 624 c 2
 241 338 l 1
 466 338 l 1
 360 624 l 1
 360 624 354 647 354 672 c 1
EndSplineSet
Validated: 1
Substitution2: "c2scLatinlookup subtable" a.sc
EndChar

StartChar: B
Encoding: 66 66 31
Width: 635
Flags: W
HStem: 0 76<172 426.069> 351 76<172 389.928> 700 75<173.008 405.373>
VStem: 84 88<76 351 427 692.78> 457 85<482.647 649.875> 490 86<133.874 293.937>
LayerCount: 2
Fore
SplineSet
298 775 m 0xf4
 434 775 542 724 542 558 c 3xf8
 542 477 509 429 464 400 c 1
 558 359 576 273 576 227 c 3
 576 167 576 0 312 0 c 2
 84 0 l 1
 84 757 l 1
 134 765 207 775 298 775 c 0xf4
172 351 m 1
 172 76 l 1
 312 76 l 2
 487 76 490 173 490 227 c 3xf4
 490 260 472 351 325 351 c 2
 325 351 172 351 172 351 c 1
457 560 m 3xf8
 457 680 390 700 297 700 c 3
 252 700 209 695 172 690 c 1
 172 427 l 1
 247 427 l 2
 359 427 457 441 457 560 c 3xf8
EndSplineSet
Validated: 1
Substitution2: "c2scLatinlookup subtable" b.sc
EndChar

StartChar: G
Encoding: 71 71 32
Width: 748
Flags: W
HStem: -15 80<307.574 505.86> 300 78<399.32 579> 709 76<327.636 508.603>
VStem: 59 91<235.141 509.898> 579 84<117.968 300>
LayerCount: 2
Fore
SplineSet
663 378 m 1
 663 147 l 2
 663 56 539 -15 422 -15 c 3
 127 -15 59 209 59 368 c 3
 59 680 266 785 417 785 c 3
 573 785 657 667 657 667 c 1
 598 609 l 1
 598 609 534 709 421 709 c 3
 313 709 150 615 150 368 c 3
 150 246 199 65 418 65 c 3
 477 65 579 109 579 156 c 2
 579 300 l 1
 489 300 l 2
 465 300 426 300 398 313 c 1
 398 388 l 1
 423 378 469 378 492 378 c 2
 663 378 l 1
EndSplineSet
Validated: 1
Substitution2: "c2scLatinlookup subtable" g.sc
EndChar

StartChar: underscore
Encoding: 95 95 33
Width: 659
Flags: W
HStem: -64 64<54 605>
LayerCount: 2
Fore
SplineSet
605 0 m 1
 605 -64 l 1
 54 -64 l 1
 54 0 l 1
 605 0 l 1
EndSplineSet
Validated: 1
EndChar

StartChar: C
Encoding: 67 67 34
Width: 642
Flags: W
HStem: -15 79<291.606 478.427> 701 84<289.501 467.844>
VStem: 59 90<238.841 517.175>
LayerCount: 2
Fore
SplineSet
593 680 m 1
 535 624 l 1
 535 624 487 701 370 701 c 3
 260 701 149 589 149 363 c 3
 149 195 250 64 370 64 c 3
 500 64 555 137 567 153 c 1
 622 98 l 1
 597 66 533 -15 365 -15 c 3
 188 -15 59 147 59 363 c 3
 59 640 211 785 371 785 c 3
 533 785 593 680 593 680 c 1
EndSplineSet
Validated: 1
Substitution2: "c2scLatinlookup subtable" c.sc
EndChar

StartChar: asciicircum
Encoding: 94 94 35
Width: 652
Flags: MW
DStem2: 39 0 111 0 0.415173 0.909742<29.8925 547.643> 362 550 326 471 0.415173 -0.909742<56.9234 574.674>
LayerCount: 2
Fore
SplineSet
290 550 m 1
 362 550 l 1
 613 0 l 1
 541 0 l 1
 326 471 l 1
 111 0 l 1
 39 0 l 1
 290 550 l 1
EndSplineSet
Validated: 1
EndChar

StartChar: E
Encoding: 69 69 36
Width: 560
Flags: W
HStem: 0 76<172 520.971> 361 76<172 457> 695 75<172 506.971>
VStem: 84 88<76 361 437 695>
LayerCount: 2
Fore
SplineSet
521 0 m 1
 84 0 l 1
 84 770 l 1
 402 770 l 2
 467 770 507 775 507 775 c 1
 507 695 l 1
 172 695 l 1
 172 437 l 1
 457 437 l 1
 457 361 l 1
 172 361 l 1
 172 76 l 1
 416 76 l 2
 481 76 521 81 521 81 c 1
 521 0 l 1
EndSplineSet
Validated: 1
Substitution2: "c2scLatinlookup subtable" e.sc
EndChar

StartChar: F
Encoding: 70 70 37
Width: 538
Flags: MW
HStem: 361 76<172 457> 696 74<172 506.971>
VStem: 84 88<0 361 437 696>
LayerCount: 2
Fore
SplineSet
172 0 m 1
 84 0 l 1
 84 770 l 1
 402 770 l 2
 467 770 507 775 507 775 c 1
 507 696 l 1
 172 696 l 1
 172 437 l 1
 457 437 l 1
 457 361 l 1
 172 361 l 1
 172 0 l 1
EndSplineSet
Validated: 1
Substitution2: "c2scLatinlookup subtable" f.sc
EndChar

StartChar: H
Encoding: 72 72 38
Width: 740
Flags: MW
HStem: 360 76<172 568>
VStem: 84 88<0 360 436 770> 568 88<0 360 436 770>
LayerCount: 2
Fore
SplineSet
172 0 m 1
 84 0 l 1
 84 770 l 1
 172 770 l 1
 172 436 l 1
 568 436 l 1
 568 770 l 1
 656 770 l 1
 656 0 l 1
 568 0 l 1
 568 360 l 1
 172 360 l 1
 172 0 l 1
EndSplineSet
Validated: 1
Substitution2: "c2scLatinlookup subtable" h.sc
EndChar

StartChar: I
Encoding: 73 73 39
Width: 256
Flags: MW
VStem: 84 88<0 770>
LayerCount: 2
Fore
SplineSet
172 0 m 1
 84 0 l 1
 84 770 l 1
 172 770 l 1
 172 0 l 1
EndSplineSet
Validated: 1
Substitution2: "c2scLatinlookup subtable" i.sc
EndChar

StartChar: J
Encoding: 74 74 40
Width: 284
Flags: W
VStem: 113 88<-103.029 770>
LayerCount: 2
Fore
SplineSet
113 770 m 1
 201 770 l 1
 201 -17 l 2
 201 -178 89 -237 21 -259 c 1
 -11 -180 l 1
 50 -163 113 -116 113 -17 c 2
 113 770 l 1
EndSplineSet
Validated: 1
Substitution2: "c2scLatinlookup subtable" j.sc
EndChar

StartChar: O
Encoding: 79 79 41
Width: 755
Flags: W
HStem: -15 76<287.357 470.797> 710 75<288.673 470.601>
VStem: 59 88<230.375 538.61> 608 88<230.464 537.72>
LayerCount: 2
Fore
SplineSet
380 785 m 3
 527 785 695 695 696 386 c 3
 696 71 535 -15 377 -15 c 3
 230 -15 59 70 59 384 c 3
 59 697 230 785 380 785 c 3
380 710 m 3
 276 710 147 631 147 386 c 3
 147 137 276 61 377 61 c 3
 487 61 607 136 608 384 c 3
 608 628 487 710 380 710 c 3
EndSplineSet
Validated: 1
Substitution2: "c2scLatinlookup subtable" o.sc
EndChar

StartChar: K
Encoding: 75 75 42
Width: 612
Flags: W
HStem: 0 21G<84 172 477 598>
VStem: 84 88<0 341.342 429 770>
DStem2: 172 429 265 410 0.616662 0.787228<42.3922 432.477>
LayerCount: 2
Fore
SplineSet
84 770 m 1
 172 770 l 1
 172 429 l 1
 438 770 l 1
 547 770 l 1
 265 410 l 1
 295 406 351 385 379 337 c 2
 379 337 543 65 598 0 c 1
 494 0 l 1
 460 36 308 294 308 294 c 2
 285 330 248 342 210 342 c 3
 198 342 185 341 172 338 c 1
 172 0 l 1
 84 0 l 1
 84 770 l 1
EndSplineSet
Validated: 1
Substitution2: "c2scLatinlookup subtable" k.sc
EndChar

StartChar: L
Encoding: 76 76 43
Width: 555
Flags: W
HStem: 0 76<172 520.971>
VStem: 84 88<76 770>
LayerCount: 2
Fore
SplineSet
84 0 m 1
 84 770 l 1
 172 770 l 1
 172 76 l 1
 416 76 l 2
 481 76 521 81 521 81 c 1
 521 0 l 1
 84 0 l 1
EndSplineSet
Validated: 1
Substitution2: "c2scLatinlookup subtable" l.sc
EndChar

StartChar: M
Encoding: 77 77 44
Width: 849
Flags: MW
VStem: 84 88<0 556> 677 88<0 557>
DStem2: 172 770 175 540 0.355465 -0.934689<199.668 713.015>
LayerCount: 2
Fore
SplineSet
172 0 m 1
 84 0 l 1
 84 770 l 1
 172 770 l 1
 423 110 l 1
 424 103 l 1
 425 110 l 1
 677 770 l 1
 765 770 l 1
 765 0 l 1
 677 0 l 1
 677 540 l 1
 678 557 l 1
 674 540 l 1
 467 0 l 1
 382 0 l 1
 175 540 l 1
 171 556 l 1
 172 540 l 1
 172 0 l 1
EndSplineSet
Validated: 1
Substitution2: "c2scLatinlookup subtable" m.sc
EndChar

StartChar: N
Encoding: 78 78 45
Width: 722
Flags: W
HStem: 0 21G<84 172 550 638>
VStem: 84 88<0 622> 550 88<150 770>
DStem2: 172 770 178 608 0.522529 -0.852621<125.665 726.664>
LayerCount: 2
Fore
SplineSet
172 0 m 1
 84 0 l 1
 84 770 l 1
 172 770 l 1
 172 770 420 366 544 164 c 1
 551 150 l 1
 550 164 l 1
 550 770 l 1
 638 770 l 1
 638 0 l 1
 550 1 l 1
 178 608 l 1
 171 622 l 1
 172 608 l 1
 172 0 l 1
EndSplineSet
Validated: 1
Substitution2: "c2scLatinlookup subtable" n.sc
EndChar

StartChar: T
Encoding: 84 84 46
Width: 556
Flags: MW
HStem: 694 76<7 232 320 549>
VStem: 232 88<0 694>
LayerCount: 2
Fore
SplineSet
7 694 m 1
 7 770 l 1
 549 770 l 1
 549 694 l 1
 320 694 l 1
 320 0 l 1
 232 0 l 1
 232 694 l 1
 7 694 l 1
EndSplineSet
Validated: 1
Substitution2: "c2scLatinlookup subtable" t.sc
EndChar

StartChar: Q
Encoding: 81 81 47
Width: 755
Flags: W
HStem: -134 73<457.127 632.474> 710 75<288.673 470.601>
VStem: 59 88<233.05 538.61> 608 88<232.24 537.72>
LayerCount: 2
Fore
SplineSet
380 785 m 3
 527 785 695 695 696 386 c 3
 696 103 566 5 426 -12 c 1
 444 -33 472 -61 534 -61 c 3
 562 -61 595 -56 628 -45 c 1
 650 -117 l 1
 623 -129 564 -134 534 -134 c 3
 404 -134 343 -54 326 -11 c 1
 193 7 59 106 59 384 c 3
 59 697 230 785 380 785 c 3
380 710 m 3
 276 710 147 631 147 386 c 3
 147 137 276 61 377 61 c 3
 487 61 607 136 608 384 c 3
 608 628 487 710 380 710 c 3
EndSplineSet
Validated: 1
Substitution2: "c2scLatinlookup subtable" q.sc
EndChar

StartChar: P
Encoding: 80 80 48
Width: 617
Flags: W
HStem: 0 21G<84 172> 240 80<237.595 406.992> 708 77<221.12 396.752>
VStem: 84 88<0 292 368.731 671.025 740 770> 483 85<411.412 622.443>
LayerCount: 2
Fore
SplineSet
172 0 m 1
 84 0 l 1
 84 770 l 1
 172 770 l 1
 172 740 l 1
 218 767 277 785 336 785 c 3
 473 785 568 681 568 532 c 3
 568 340 479 240 329 240 c 3
 261 240 213 264 172 292 c 1
 172 0 l 1
483 532 m 3
 483 635 417 708 307 708 c 3
 260 708 215 689 172 657 c 1
 172 385 l 1
 218 344 273 320 333 320 c 3
 422 320 483 389 483 532 c 3
EndSplineSet
Validated: 1
Substitution2: "c2scLatinlookup subtable" p.sc
EndChar

StartChar: R
Encoding: 82 82 49
Width: 653
Flags: MW
HStem: 322 75<172 291.738> 706 79<221.146 407.241>
VStem: 84 88<0 322 397 669.916 739 770> 468 86<467.86 646.708>
LayerCount: 2
Fore
SplineSet
172 0 m 1
 84 0 l 1
 84 770 l 1
 172 770 l 1
 172 739 l 1
 225 772 278 784 341 785 c 3
 467 785 554 701 554 565 c 3
 554 408 466 347 380 329 c 1
 468 258 547 76 643 2 c 1
 643 0 l 1
 536 0 l 1
 449 69 358 290 253 322 c 1
 225 322 201 322 172 322 c 1
 172 0 l 1
320 397 m 2
 384 398 467 429 468 565 c 3
 468 650 414 706 327 706 c 3
 269 706 221 690 172 657 c 1
 172 397 l 1
 320 397 l 2
EndSplineSet
Validated: 1
Substitution2: "c2scLatinlookup subtable" r.sc
EndChar

StartChar: S
Encoding: 83 83 50
Width: 618
Flags: W
HStem: -15 80<223.297 414.593> 705 80<224.729 402.279>
VStem: 83 86<513.621 648.943> 483 86<130.488 276.233>
LayerCount: 2
Fore
SplineSet
54 136 m 1
 116 191 l 1
 168 107 230 65 323 65 c 3
 409 65 483 112 483 208 c 3
 483 302 399 329 307 357 c 0
 190 393 83 434 83 572 c 3
 83 755 234 785 305 785 c 3
 403 785 467 752 520 689 c 1
 460 638 l 1
 421 679 379 705 305 705 c 3
 260 705 169 687 169 572 c 3
 169 496 245 467 331 441 c 0
 448 405 569 358 569 208 c 3
 569 58 451 -15 321 -15 c 3
 200 -15 118 34 54 136 c 1
EndSplineSet
Validated: 1
Substitution2: "c2scLatinlookup subtable" s.sc
EndChar

StartChar: U
Encoding: 85 85 51
Width: 683
Flags: W
HStem: -12 77<249.614 429.116>
VStem: 84 88<148.114 770> 511 88<147.447 770>
LayerCount: 2
Fore
SplineSet
599 239 m 2
 598 14 426 -12 342 -12 c 3
 257 -12 85 16 84 239 c 2
 84 770 l 1
 172 770 l 1
 172 241 l 2
 172 86 285 65 342 65 c 3
 398 65 510 90 511 239 c 2
 511 770 l 1
 599 770 l 1
 599 239 l 2
EndSplineSet
Validated: 1
Substitution2: "c2scLatinlookup subtable" u.sc
EndChar

StartChar: braceleft
Encoding: 123 123 52
Width: 468
Flags: W
HStem: -266 84<265.589 374.559> 257 50<79 149.76> 746 84<265.589 374.559>
VStem: 175 84<-181.349 184 380 745.349>
CounterMasks: 1 e0
LayerCount: 2
Fore
SplineSet
283 830 m 3
 349 830 399 797 399 797 c 1
 371 727 l 1
 371 727 343 746 283 746 c 3
 263 746 259 701 259 678 c 2
 259 379 l 2
 259 376 256 317 195 282 c 1
 258 247 259 189 259 185 c 2
 259 -114 l 2
 259 -137 263 -182 283 -182 c 3
 343 -182 371 -163 371 -163 c 1
 399 -233 l 1
 399 -233 349 -266 283 -266 c 3
 191 -266 175 -165 175 -114 c 2
 175 184 l 1
 175 184 175 257 79 257 c 1
 79 307 l 1
 175 307 175 380 175 380 c 1
 175 678 l 2
 175 729 191 830 283 830 c 3
EndSplineSet
Validated: 1
EndChar

StartChar: V
Encoding: 86 86 53
Width: 684
Flags: MW
DStem2: 115 770 22 770 0.335251 -0.942129<0 684.717>
LayerCount: 2
Fore
SplineSet
388 0 m 1
 296 0 l 1
 22 770 l 1
 115 770 l 1
 339 137 l 1
 342 124 l 1
 345 137 l 1
 569 770 l 1
 662 770 l 1
 388 0 l 1
EndSplineSet
Validated: 1
Substitution2: "c2scLatinlookup subtable" v.sc
EndChar

StartChar: W
Encoding: 87 87 54
Width: 976
Flags: MW
DStem2: 115 770 25 770 0.27241 -0.962181<0 631.061>
LayerCount: 2
Fore
SplineSet
316 0 m 1
 243 0 l 1
 25 770 l 1
 115 770 l 1
 277 160 l 1
 279 148 l 1
 281 160 l 1
 441 770 l 1
 534 770 l 1
 694 158 l 1
 696 146 l 1
 698 158 l 1
 860 770 l 1
 951 770 l 1
 733 0 l 1
 660 0 l 1
 490 594 l 1
 487 612 l 1
 484 594 l 1
 316 0 l 1
EndSplineSet
Validated: 1
Substitution2: "c2scLatinlookup subtable" w.sc
EndChar

StartChar: X
Encoding: 88 88 55
Width: 655
Flags: MW
DStem2: 134 770 29 770 0.538432 -0.842669<0 357.561 500.814 856.151> 29 0 137 0 0.536875 0.843661<57.9826 412.244 555.666 912.688>
LayerCount: 2
Fore
SplineSet
519 770 m 1
 626 770 l 1
 381 384 l 1
 626 0 l 1
 519 0 l 1
 327 299 l 1
 137 0 l 1
 29 0 l 1
 273 384 l 1
 29 770 l 5
 134 770 l 1
 327 469 l 1
 519 770 l 1
EndSplineSet
Validated: 1
Substitution2: "c2scLatinlookup subtable" x.sc
EndChar

StartChar: Y
Encoding: 89 89 56
Width: 615
Flags: HMW
VStem: 265 87<0 369>
DStem2: 112 770 9 770 0.538099 -0.842882<0 366.456> 309 461 352 369 0.535102 0.844787<0 366.99>
LayerCount: 2
Fore
SplineSet
507 770 m 1
 606 770 l 1
 352 369 l 1
 352 0 l 1
 265 0 l 1
 265 369 l 1
 9 770 l 1
 112 770 l 1
 309 461 l 1
 507 770 l 1
EndSplineSet
Validated: 1
Substitution2: "c2scLatinlookup subtable" y.sc
EndChar

StartChar: zero
Encoding: 48 48 57
Width: 610
Flags: W
HStem: -15 74<226.831 383.169> 499 74<226.831 383.169>
VStem: 59 84<152.958 405.042> 467 84<152.958 405.042>
LayerCount: 2
Fore
SplineSet
59 279 m 3
 59 504 187 573 305 573 c 3
 423 573 551 504 551 279 c 3
 551 54 423 -15 305 -15 c 3
 187 -15 59 54 59 279 c 3
467 279 m 3
 467 448 383 499 305 499 c 3
 227 499 143 448 143 279 c 3
 143 110 227 59 305 59 c 3
 383 59 467 110 467 279 c 3
EndSplineSet
Validated: 1
Substitution2: "lnumLatinlookup subtable" zero.lnum
Substitution2: "aaltLatinlookup subtable" zero.lnum
EndChar

StartChar: one
Encoding: 49 49 58
Width: 363
Flags: MW
VStem: 192 89<0 470>
LayerCount: 2
Fore
SplineSet
281 0 m 1
 192 0 l 1
 192 470 l 1
 103 395 l 1
 49 457 l 1
 192 565 l 1
 281 565 l 1
 281 0 l 1
EndSplineSet
Validated: 1
Substitution2: "lnumLatinlookup subtable" one.lnum
Substitution2: "aaltLatinlookup subtable" one.lnum
EndChar

StartChar: two
Encoding: 50 50 59
Width: 536
Flags: MW
HStem: 0 76<184 482> 500 77<183.98 327.907>
VStem: 363 85<337.55 465.185>
LayerCount: 2
Fore
SplineSet
112 401 m 1
 112 401 58 455 58 456 c 0
 87 504 148 576 258 577 c 3
 373 577 448 514 448 396 c 3
 448 275 262 124 184 76 c 1
 482 76 l 1
 482 0 l 1
 49 0 l 1
 49 64 l 2
 51 64 363 286 363 396 c 3
 363 469 316 500 257 500 c 3
 160 500 112 401 112 401 c 1
EndSplineSet
Validated: 1
Substitution2: "lnumLatinlookup subtable" two.lnum
Substitution2: "aaltLatinlookup subtable" two.lnum
EndChar

StartChar: three
Encoding: 51 51 60
Width: 543
Flags: W
HStem: -204 80<101.714 287.159> 497 79<150.471 290.227>
VStem: 316 82<350.781 471.724> 403 82<-6.56459 153.893>
LayerCount: 2
Fore
SplineSet
102 428 m 1
 55 474 l 1
 55 474 108 576 230 576 c 3
 320 576 398 511 398 419 c 3
 398 357 354 311 310 276 c 1
 403 264 485 189 485 88 c 3
 485 -113 317 -204 199 -204 c 3
 104 -204 34 -143 34 -143 c 1
 87 -93 l 1
 87 -93 125 -124 199 -124 c 3
 281 -124 403 -59 403 88 c 3
 403 150 347 209 282 209 c 3
 211 209 141 184 141 184 c 1
 141 252 l 1
 234 287 316 336 316 419 c 3
 316 467 275 497 231 497 c 3
 139 497 102 428 102 428 c 1
EndSplineSet
Validated: 1
Substitution2: "lnumLatinlookup subtable" three.lnum
Substitution2: "aaltLatinlookup subtable" three.lnum
EndChar

StartChar: four
Encoding: 52 52 61
Width: 621
Flags: W
HStem: 0 76<144 398 487 592>
VStem: 398 89<-204 0 76 412>
DStem2: 34 47 158 87 0.602703 0.797966<87.0444 510.641>
LayerCount: 2
Fore
SplineSet
592 76 m 1
 592 0 l 1
 487 0 l 1
 487 -204 l 1
 398 -204 l 1
 398 0 l 1
 34 0 l 1
 34 47 l 1
 426 566 l 1
 487 566 l 1
 487 76 l 1
 592 76 l 1
163 76 m 1
 398 76 l 1
 398 412 l 1
 158 87 l 1
 144 73 l 1
 144 72 l 1
 163 76 l 1
EndSplineSet
Validated: 1
Substitution2: "lnumLatinlookup subtable" four.lnum
Substitution2: "aaltLatinlookup subtable" four.lnum
EndChar

StartChar: five
Encoding: 53 53 62
Width: 596
Flags: W
HStem: -204 74<190.632 363.369> 243 73<188.102 373.461> 490 75<178 476>
VStem: 90 88<290 490> 452 81<-29.8816 164.949>
LayerCount: 2
Fore
SplineSet
178 490 m 1
 178 290 l 1
 207 303 238 316 289 316 c 3
 449 316 533 220 533 91 c 3
 533 -119 425 -204 278 -204 c 3
 147 -204 69 -118 69 -118 c 1
 117 -59 l 1
 117 -59 189 -130 278 -130 c 3
 374 -130 452 -66 452 89 c 3
 452 158 400 243 289 243 c 3
 244 243 199 236 156 207 c 1
 90 207 l 1
 90 565 l 1
 476 565 l 1
 476 490 l 1
 178 490 l 1
EndSplineSet
Validated: 1
Substitution2: "lnumLatinlookup subtable" five.lnum
Substitution2: "aaltLatinlookup subtable" five.lnum
EndChar

StartChar: six
Encoding: 54 54 63
Width: 608
Flags: W
HStem: -15 73<239.127 390.738> 387 74<265.667 414.749> 686 79<276.782 434.605>
VStem: 63 79<331 476.507> 466 83<143.529 331.074>
LayerCount: 2
Fore
SplineSet
340 461 m 3
 452 461 549 403 549 237 c 3
 549 144 493 -15 316 -15 c 3
 155 -15 63 114 63 344 c 3
 63 570 182 765 346 765 c 3
 433 765 503 712 518 700 c 1
 465 645 l 1
 465 645 417 686 350 686 c 3
 196 686 145 464 142 331 c 1
 208 433 280 461 340 461 c 3
316 58 m 3
 430 58 466 172 466 237 c 3
 466 350 407 387 340 387 c 3
 284 387 213 353 153 225 c 1
 174 118 232 58 316 58 c 3
EndSplineSet
Validated: 1
Substitution2: "lnumLatinlookup subtable" six.lnum
Substitution2: "aaltLatinlookup subtable" six.lnum
EndChar

StartChar: seven
Encoding: 55 55 64
Width: 506
Flags: W
HStem: 483 83<45 375>
LayerCount: 2
Fore
SplineSet
45 483 m 1
 45 566 l 1
 477 566 l 1
 477 507 l 1
 397 338 144 -154 61 -190 c 1
 4 -137 l 1
 66 -99 279 286 375 483 c 1
 45 483 l 1
EndSplineSet
Validated: 1
Substitution2: "lnumLatinlookup subtable" seven.lnum
Substitution2: "aaltLatinlookup subtable" seven.lnum
EndChar

StartChar: nine
Encoding: 57 57 65
Width: 608
Flags: W
HStem: -215 79<173.395 331.218> 89 74<193.251 342.333> 492 73<217.262 368.873>
VStem: 59 83<218.926 406.471> 466 79<73.4929 219>
LayerCount: 2
Fore
SplineSet
268 89 m 3
 156 89 59 147 59 313 c 3
 59 406 115 565 292 565 c 3
 453 565 545 436 545 206 c 3
 545 -20 426 -215 262 -215 c 3
 175 -215 105 -161 90 -150 c 1
 143 -95 l 1
 143 -95 191 -136 258 -136 c 3
 412 -136 463 86 466 219 c 1
 400 117 328 89 268 89 c 3
292 492 m 3
 178 492 142 378 142 313 c 3
 142 200 201 163 268 163 c 3
 324 163 395 197 455 325 c 1
 434 432 376 492 292 492 c 3
EndSplineSet
Validated: 1
Substitution2: "lnumLatinlookup subtable" nine.lnum
Substitution2: "aaltLatinlookup subtable" nine.lnum
EndChar

StartChar: eight
Encoding: 56 56 66
Width: 582
Flags: W
HStem: -15 70<194.56 385.633> 700 65<203.054 377.339>
VStem: 64 81<100.881 238.71> 83 82<533.185 662.437> 415 84<529.262 663.43> 435 83<100.881 221.2>
LayerCount: 2
Fore
SplineSet
499 601 m 3xd8
 499 498 402 422 346 388 c 1
 434 326 518 256 518 164 c 3
 518 31 410 -15 290 -15 c 3
 170 -15 64 31 64 164 c 3xe4
 64 267 152 349 217 389 c 1
 143 448 83 517 83 601 c 3
 83 725 192 765 290 765 c 3
 388 765 499 725 499 601 c 3xd8
435 164 m 3
 435 224 358 287 272 350 c 1
 217 315 145 240 145 164 c 3
 145 74 230 55 290 55 c 3
 350 55 435 74 435 164 c 3
287 431 m 1
 325 451 415 512 415 601 c 3
 415 679 350 700 290 700 c 3
 231 700 165 679 165 601 c 3xd8
 165 537 223 483 287 431 c 1
EndSplineSet
Validated: 1
Substitution2: "lnumLatinlookup subtable" eight.lnum
Substitution2: "aaltLatinlookup subtable" eight.lnum
EndChar

StartChar: ampersand
Encoding: 38 38 67
Width: 884
Flags: W
HStem: -7 81<226.89 413.496 666.078 749.421> 708 62<259.518 429.096>
VStem: 59 84<140.814 272.493> 133 84<549.783 668.255> 469 84<553.735 669.279>
DStem2: 312 462 236 422 0.689522 -0.724265<-155.841 -23.433 68.6208 338.173>
LayerCount: 2
Fore
SplineSet
59 200 m 3xe8
 59 306 141 369 236 422 c 1
 175 489 133 546 133 606 c 3xd8
 133 731 245 770 345 770 c 3
 445 770 553 731 553 606 c 3
 553 519 461 464 359 412 c 1
 359 412 543 215 543 215 c 1
 576 267 602 321 629 381 c 1
 694 349 l 1
 663 283 631 217 596 160 c 1
 654 103 685 73 713 73 c 3
 731 73 750 86 770 131 c 1
 830 96 l 1
 792 10 753 -7 720 -7 c 3
 670 -7 625 27 550 96 c 1
 496 34 423 -7 310 -7 c 3
 207 -7 59 49 59 200 c 3xe8
283 373 m 1
 207 331 143 280 143 200 c 3xe8
 143 111 264 74 310 74 c 3
 393 74 450 107 494 151 c 1
 494 151 283 373 283 373 c 1
469 606 m 3
 469 685 405 708 345 708 c 3
 285 708 217 685 217 606 c 3xd8
 217 570 256 521 312 462 c 1
 393 503 469 546 469 606 c 3
EndSplineSet
Validated: 1
EndChar

StartChar: dollar
Encoding: 36 36 69
Width: 618
Flags: W
HStem: -14 80<218.11 282 350 419.098> 702 81<218.844 282 350 409.33>
VStem: 83 86<513.01 653.13> 282 68<-67 -13.4133 66 344 458 702 782.711 842> 483 86<128.094 272.575>
LayerCount: 2
Fore
SplineSet
282 -67 m 1
 282 -14 l 1
 182 -2 111 43 54 134 c 1
 116 189 l 1
 160 118 211 78 282 66 c 1
 282 365 l 1
 175 400 83 445 83 573 c 3
 83 738 206 778 282 785 c 1
 282 842 l 1
 350 842 l 1
 350 783 l 1
 423 774 475 743 520 690 c 1
 460 639 l 1
 429 671 397 694 350 702 c 1
 350 436 l 1
 461 400 569 347 569 205 c 3
 569 66 468 -6 350 -16 c 1
 350 -67 l 1
 282 -67 l 1
483 205 m 3
 483 284 423 318 350 344 c 1
 350 64 l 1
 424 73 483 119 483 205 c 3
169 573 m 3
 169 512 217 481 282 458 c 1
 282 704 l 1
 235 698 169 670 169 573 c 3
EndSplineSet
Validated: 1
EndChar

StartChar: braceright
Encoding: 125 125 70
Width: 468
Flags: W
HStem: -266 84<93.4411 202.411> 257 50<319.567 389> 746 84<93.4411 202.411>
VStem: 209 84<-181.349 184 380 745.349>
CounterMasks: 1 e0
LayerCount: 2
Fore
SplineSet
185 746 m 3
 125 746 97 727 97 727 c 1
 69 797 l 1
 69 797 119 830 185 830 c 3
 277 830 293 729 293 678 c 2
 293 380 l 1
 293 380 296 307 389 307 c 1
 389 257 l 1
 296 257 293 190 293 185 c 2
 293 -114 l 2
 293 -165 277 -266 185 -266 c 3
 119 -266 69 -233 69 -233 c 1
 97 -163 l 1
 97 -163 125 -182 185 -182 c 3
 205 -182 209 -137 209 -114 c 2
 209 184 l 1
 209 184 210 246 272 282 c 1
 210 317 209 375 209 379 c 2
 209 678 l 2
 209 701 205 746 185 746 c 3
EndSplineSet
Validated: 1
EndChar

StartChar: bar
Encoding: 124 124 71
Width: 244
Flags: W
VStem: 84 76<-260 830>
LayerCount: 2
Fore
SplineSet
160 -260 m 1
 84 -260 l 1
 84 830 l 1
 160 830 l 1
 160 -260 l 1
EndSplineSet
Validated: 1
EndChar

StartChar: at
Encoding: 64 64 72
Width: 1060
Flags: W
HStem: -197 80<416.62 703.369> 19 66<385.117 500.813 696 783.441> 514 65<500.639 629.495> 690 80<432.046 682.616>
VStem: 54 80<143.636 382.39> 285 80<101.789 334.887> 926 80<235.73 462.51>
DStem2: 649 239 696 82 0.217382 0.976087<-44.2006 197.268 266.173 326.192>
LayerCount: 2
Fore
SplineSet
420 19 m 3
 324 19 285 95 285 206 c 3
 285 426 450 579 561 579 c 3
 611 579 662 567 706 499 c 1
 714 535 720 558 720 558 c 1
 798 540 l 1
 798 540 696 82 696 82 c 1
 718 82 926 112 926 348 c 3
 926 510 792 690 553 690 c 3
 332 690 134 481 134 261 c 3
 134 41 332 -117 553 -117 c 3
 656 -117 733 -107 877 12 c 1
 927 -50 l 1
 763 -185 674 -197 553 -197 c 3
 288 -197 54 -3 54 261 c 3
 54 525 288 770 553 770 c 3
 844 770 1006 552 1006 348 c 3
 1006 76 758 19 683 19 c 3
 636 19 618 42 618 78 c 3
 618 87 619 97 621 108 c 1
 569 62 499 19 420 19 c 3
365 206 m 3
 365 130 381 85 421 85 c 3
 531 85 630 212 649 239 c 1
 686 407 l 1
 646 504 603 514 561 514 c 3
 482 514 365 390 365 206 c 3
EndSplineSet
Validated: 1
EndChar

StartChar: slash
Encoding: 47 47 73
Width: 352
Flags: MW
DStem2: 19 0 102 0 0.287348 0.957826<23.8499 803.904>
LayerCount: 2
Fore
SplineSet
250 770 m 1
 333 770 l 1
 102 0 l 1
 19 0 l 1
 250 770 l 1
EndSplineSet
Validated: 1
EndChar

StartChar: exclam
Encoding: 33 33 74
Width: 292
Flags: W
HStem: -7 124<98.9564 193.566>
VStem: 84 124<7.95644 102.566> 96 99<477.538 820> 109 73<184 526.462>
LayerCount: 2
Fore
SplineSet
182 184 m 1x90
 109 184 l 1x90
 96 820 l 1
 195 820 l 1xa0
 182 184 l 1x90
84 56 m 0xc0
 84 91 111 117 147 117 c 0
 182 117 208 91 208 56 c 0
 208 20 182 -7 147 -7 c 0
 111 -7 84 20 84 56 c 0xc0
EndSplineSet
Validated: 1
EndChar

StartChar: parenleft
Encoding: 40 40 75
Width: 336
Flags: W
HStem: 700 70<275.054 301.6>
VStem: 59 84<53.5596 455.069>
LayerCount: 2
Fore
SplineSet
301 770 m 1
 307 700 l 1
 174 653 143 379 143 254 c 3
 143 130 174 -145 307 -191 c 1
 301 -261 l 1
 109 -241 59 109 59 254 c 3
 59 398 110 754 301 770 c 1
EndSplineSet
Validated: 1
EndChar

StartChar: backslash
Encoding: 92 92 76
Width: 362
Flags: MW
VStem: 24 314
DStem2: 107 770 24 770 0.287348 -0.957826<0 780.054>
LayerCount: 2
Fore
SplineSet
24 770 m 1
 107 770 l 1
 338 0 l 1
 255 0 l 1
 24 770 l 1
EndSplineSet
Validated: 1
EndChar

StartChar: parenright
Encoding: 41 41 77
Width: 336
Flags: W
HStem: 700 70<34.4 60.9457>
VStem: 193 84<53.5596 455.069>
LayerCount: 2
Fore
SplineSet
29 700 m 1
 35 770 l 1
 226 754 277 398 277 254 c 3
 277 109 227 -241 35 -261 c 1
 29 -191 l 1
 162 -145 193 130 193 254 c 3
 193 379 162 653 29 700 c 1
EndSplineSet
Validated: 1
EndChar

StartChar: quotedbl
Encoding: 34 34 78
Width: 376
Flags: W
HStem: 658 111<55.9134 103.958 226.913 274.958>
VStem: 44 117<671.336 754.07> 215 117<671.336 754.07>
LayerCount: 2
Fore
SplineSet
215 714 m 3
 215 746 239 769 271 769 c 3
 314 769 332 733 332 687 c 3
 332 632 305 569 263 517 c 1
 217 542 l 1
 246 578 268 614 275 658 c 1
 239 658 215 682 215 714 c 3
44 714 m 3
 44 746 68 769 100 769 c 3
 143 769 161 733 161 687 c 3
 161 632 134 569 92 517 c 1
 46 542 l 1
 75 578 97 614 104 658 c 1
 68 658 44 682 44 714 c 3
EndSplineSet
Validated: 1
EndChar

StartChar: quotedblleft
Encoding: 8220 8220 79
Width: 376
Flags: W
HStem: 537 111<101.042 149.087 272.042 320.087>
VStem: 44 117<551.93 634.664> 215 117<551.93 634.664>
LayerCount: 2
Fore
SplineSet
161 592 m 3
 161 560 137 537 105 537 c 3
 62 537 44 573 44 619 c 3
 44 674 71 737 113 789 c 1
 159 764 l 1
 130 728 108 692 101 648 c 1
 137 648 161 624 161 592 c 3
332 592 m 3
 332 560 308 537 276 537 c 3
 233 537 215 573 215 619 c 3
 215 674 242 737 284 789 c 1
 330 764 l 1
 301 728 279 692 272 648 c 1
 308 648 332 624 332 592 c 3
EndSplineSet
Validated: 1
EndChar

StartChar: quotedblright
Encoding: 8221 8221 80
Width: 376
Flags: W
HStem: 658 111<55.9134 103.958 226.913 274.958>
VStem: 44 117<671.336 754.07> 215 117<671.336 754.07>
LayerCount: 2
Fore
SplineSet
215 714 m 3
 215 746 239 769 271 769 c 3
 314 769 332 733 332 687 c 3
 332 632 305 569 263 517 c 1
 217 542 l 1
 246 578 268 614 275 658 c 1
 239 658 215 682 215 714 c 3
44 714 m 3
 44 746 68 769 100 769 c 3
 143 769 161 733 161 687 c 3
 161 632 134 569 92 517 c 1
 46 542 l 1
 75 578 97 614 104 658 c 1
 68 658 44 682 44 714 c 3
EndSplineSet
Validated: 1
EndChar

StartChar: asciitilde
Encoding: 126 126 81
Width: 650
Flags: W
HStem: 298 68<304.592 535.38> 332 70<113.314 334.246>
LayerCount: 2
Fore
SplineSet
90 296 m 1x40
 54 349 l 1
 71 367 143 402 212 402 c 0x40
 245 402 284 393 323 383 c 0
 358 374 401 366 436 366 c 0
 484 366 550 390 564 403 c 1
 596 347 l 1
 582 334 514 298 438 298 c 0x80
 399 298 356 307 314 317 c 0
 280 325 246 332 217 332 c 0
 161 332 105 311 90 296 c 1x40
EndSplineSet
Validated: 1
EndChar

StartChar: quotesingle
Encoding: 39 39 82
Width: 205
Flags: W
HStem: 659 111<55.9134 103.958>
VStem: 44 117<672.336 755.07>
LayerCount: 2
Fore
SplineSet
44 715 m 3
 44 747 68 770 100 770 c 3
 143 770 161 734 161 688 c 3
 161 633 134 570 92 518 c 1
 46 543 l 1
 75 579 97 615 104 659 c 1
 68 659 44 683 44 715 c 3
EndSplineSet
Validated: 1
EndChar

StartChar: plus
Encoding: 43 43 83
Width: 648
Flags: W
HStem: 0 21G<285 352> 242 67<49 285 352 599>
VStem: 285 67<0 242 309 550>
LayerCount: 2
Fore
SplineSet
352 0 m 1
 285 0 l 1
 285 242 l 1
 49 242 l 1
 49 309 l 1
 285 309 l 1
 285 550 l 1
 352 550 l 1
 352 309 l 1
 599 309 l 1
 599 242 l 1
 352 242 l 1
 352 0 l 1
EndSplineSet
Validated: 1
EndChar

StartChar: bracketright
Encoding: 93 93 84
Width: 357
Flags: W
HStem: -260 60<69 189> 710 60<69 189>
VStem: 69 204<-260 -200 710 770> 189 84<-200 710>
LayerCount: 2
Fore
SplineSet
69 -260 m 1xe0
 69 -200 l 1xe0
 189 -200 l 1
 189 710 l 1xd0
 69 710 l 1
 69 770 l 1
 273 770 l 1
 273 -260 l 1
 69 -260 l 1xe0
EndSplineSet
Validated: 1
EndChar

StartChar: percent
Encoding: 37 37 85
Width: 1001
Flags: W
HStem: -15 66<686.462 819.077> 338 66<685.755 819.163> 360 66<182.462 315.077> 713 66<181.755 315.163>
VStem: 59 85<468.725 671.807> 353 85<467.649 670.379> 563 85<93.7253 296.807> 857 85<92.6486 295.379>
DStem2: 160 -47 256 -47 0.558695 0.829373<53.6347 1038.13>
LayerCount: 2
Fore
SplineSet
59 570 m 3xbf
 59 732 161 778 248 779 c 3
 337 779 438 733 438 568 c 3
 438 406 336 360 249 360 c 3
 162 360 59 407 59 570 c 3xbf
740 814 m 1
 836 814 l 1
 256 -47 l 1
 160 -47 l 1
 740 814 l 1
248 713 m 3
 195 713 144 689 144 570 c 3
 144 450 196 426 249 426 c 3
 302 426 352 449 353 568 c 3
 353 690 302 713 248 713 c 3
563 195 m 3
 563 357 665 403 752 404 c 3xdf
 841 404 942 358 942 193 c 3
 942 31 840 -15 753 -15 c 3
 666 -15 563 32 563 195 c 3
752 338 m 3
 699 338 648 314 648 195 c 3
 648 75 700 51 753 51 c 3
 806 51 856 74 857 193 c 3
 857 315 806 338 752 338 c 3
EndSplineSet
Validated: 1
EndChar

StartChar: equal
Encoding: 61 61 86
Width: 659
Flags: W
HStem: 168 67<54 605> 328 67<54 605>
LayerCount: 2
Fore
SplineSet
605 395 m 1
 605 328 l 1
 54 328 l 1
 54 395 l 1
 605 395 l 1
605 235 m 1
 605 168 l 1
 54 168 l 1
 54 235 l 1
 605 235 l 1
EndSplineSet
Validated: 1
EndChar

StartChar: bracketleft
Encoding: 91 91 87
Width: 357
Flags: W
HStem: -260 60<168 288> 710 60<168 288>
VStem: 84 204<-260 -200 710 770> 84 84<-200 710>
LayerCount: 2
Fore
SplineSet
288 770 m 1xe0
 288 710 l 1xe0
 168 710 l 1
 168 -200 l 1xd0
 288 -200 l 1
 288 -260 l 1
 84 -260 l 1
 84 770 l 1
 288 770 l 1xe0
EndSplineSet
Validated: 1
EndChar

StartChar: numbersign
Encoding: 35 35 88
Width: 823
Flags: W
HStem: 0 21G<145 223.854 395 473.854> 239 72<56 203 295 453 545 712> 488 72<111 264 356 514 606 767>
DStem2: 145 0 219 0 0.238379 0.971172<17.64 245.936 337.791 502.299 594.154 792.856> 395 0 469 0 0.238379 0.971172<17.64 245.936 337.791 502.299 594.154 792.856>
LayerCount: 2
Fore
SplineSet
94 488 m 1
 111 560 l 1
 282 560 l 1
 334 770 l 1
 408 770 l 1
 356 560 l 1
 532 560 l 1
 584 770 l 1
 658 770 l 1
 606 560 l 1
 784 560 l 1
 767 488 l 1
 588 488 l 1
 545 311 l 1
 729 311 l 1
 712 239 l 1
 527 239 l 1
 469 0 l 1
 395 0 l 1
 453 239 l 1
 277 239 l 1
 219 0 l 1
 145 0 l 1
 203 239 l 1
 39 239 l 1
 56 311 l 1
 221 311 l 1
 264 488 l 1
 94 488 l 1
338 488 m 1
 295 311 l 1
 471 311 l 1
 514 488 l 1
 338 488 l 1
EndSplineSet
Validated: 1
EndChar

StartChar: less
Encoding: 60 60 89
Width: 698
Flags: W
DStem2: 74 316 153 280 0.911152 0.412071<57.1465 579.45> 153 280 74 244 0.911152 -0.412071<0 522.303>
LayerCount: 2
Fore
SplineSet
74 244 m 1
 74 316 l 1
 629 567 l 1
 629 495 l 1
 153 280 l 1
 629 65 l 1
 629 -7 l 1
 74 244 l 1
EndSplineSet
Validated: 1
EndChar

StartChar: greater
Encoding: 62 62 90
Width: 698
Flags: W
DStem2: 69 567 69 495 0.911152 -0.412071<29.6691 551.061> 69 65 69 -7 0.911152 0.412071<0 521.392>
LayerCount: 2
Fore
SplineSet
624 316 m 1
 624 244 l 1
 69 -7 l 1
 69 65 l 1
 544 280 l 1
 69 495 l 1
 69 567 l 1
 624 316 l 1
EndSplineSet
Validated: 1
EndChar

StartChar: asterisk
Encoding: 42 42 91
Width: 616
Flags: W
VStem: 275 66<551 770>
DStem2: 73 632 48 567 0.930642 -0.365932<0.519533 217.63> 341 551 361 486 0.931243 0.364399<0 217.223>
LayerCount: 2
Fore
SplineSet
48 567 m 1
 73 632 l 1
 275 551 l 1
 273 770 l 1
 343 770 l 1
 341 551 l 1
 543 632 l 1
 568 567 l 1
 361 486 l 1
 505 326 l 1
 447 277 l 1
 308 449 l 1
 170 277 l 1
 110 326 l 1
 254 486 l 1
 48 567 l 1
EndSplineSet
Validated: 1
EndChar

StartChar: emdash
Encoding: 8212 8212 92
Width: 789
Flags: W
HStem: 243 65<54 735>
LayerCount: 2
Fore
SplineSet
735 308 m 1
 735 243 l 1
 54 243 l 1
 54 308 l 1
 735 308 l 1
EndSplineSet
Validated: 1
EndChar

StartChar: minus
Encoding: 8722 8722 93
Width: 658
Flags: W
HStem: 242 67<54 604>
LayerCount: 2
Fore
SplineSet
604 309 m 1
 604 242 l 1
 54 242 l 1
 54 309 l 1
 604 309 l 1
EndSplineSet
Validated: 1
EndChar

StartChar: a
Encoding: 97 97 94
Width: 562
Flags: W
HStem: -12 70<157.116 299.612> 484 78<232.138 375.076>
VStem: 54 82<80.6221 202.588> 391 83<126.994 269 336.281 466.977>
DStem2: 252 318 261 248 0.989235 0.146337<-99.0779 130.333>
LayerCount: 2
Fore
SplineSet
110 407 m 1
 110 407 77 475 77 475 c 1
 113 496 230 562 341 562 c 3
 456 562 474 456 474 404 c 2
 474 108 l 2
 474 96 480 59 528 38 c 1
 474 -12 l 1
 426 7 406 39 397 74 c 1
 349 23 283 -12 209 -12 c 3
 187 -12 54 -1 54 138 c 3
 54 209 83 293 252 318 c 0
 325 328 367 335 391 341 c 1
 391 404 l 2
 391 425 386 484 329 484 c 3
 244 484 110 407 110 407 c 1
209 58 m 3
 270 58 342 90 391 151 c 1
 391 269 l 1
 361 263 324 257 261 248 c 0
 153 232 136 184 136 138 c 3
 136 69 192 58 209 58 c 3
EndSplineSet
Validated: 1
Substitution2: "smcpLatinlookup subtable" a.sc
EndChar

StartChar: b
Encoding: 98 98 95
Width: 624
Flags: MW
HStem: -12 79<252.167 408.528> 480 82<256.938 416.981>
VStem: 84 83<0 54 126.486 404.165 479 820> 486 84<159.597 394.524>
LayerCount: 2
Fore
SplineSet
353 562 m 3
 502 562 570 429 570 284 c 3
 570 97 482 -12 339 -12 c 3
 289 -12 223 9 167 54 c 1
 167 0 l 1
 84 0 l 1
 84 820 l 1
 167 820 l 1
 167 479 l 1
 211 527 263 562 353 562 c 3
353 480 m 3
 256 480 199 426 167 376 c 1
 167 146 l 1
 216 97 287 67 339 67 c 3
 428 67 486 149 486 284 c 3
 486 385 441 480 353 480 c 3
EndSplineSet
Validated: 1
Substitution2: "smcpLatinlookup subtable" b.sc
EndChar

StartChar: c
Encoding: 99 99 96
Width: 508
Flags: W
HStem: -12 74<216.459 362.964> 487 75<222.987 364.291>
VStem: 54 84<156.213 383.644>
LayerCount: 2
Fore
SplineSet
290 562 m 3
 403 562 459 474 459 474 c 1
 406 424 l 1
 406 424 372 487 288 487 c 3
 219 487 138 415 138 265 c 3
 138 155 195 62 283 62 c 3
 322 62 358 69 417 125 c 1
 469 75 l 1
 390 -6 334 -12 283 -12 c 3
 145 -12 54 109 54 265 c 3
 54 472 183 562 290 562 c 3
EndSplineSet
Validated: 1
Substitution2: "smcpLatinlookup subtable" c.sc
EndChar

StartChar: quoteleft
Encoding: 8216 8216 97
Width: 205
Flags: W
HStem: 537 111<101.042 149.087>
VStem: 44 117<551.93 634.664>
LayerCount: 2
Fore
SplineSet
161 592 m 3
 161 560 137 537 105 537 c 3
 62 537 44 573 44 619 c 3
 44 674 71 737 113 789 c 1
 159 764 l 1
 130 728 108 692 101 648 c 1
 137 648 161 624 161 592 c 3
EndSplineSet
Validated: 1
EndChar

StartChar: quoteright
Encoding: 8217 8217 98
Width: 205
Flags: W
HStem: 658 111<55.9134 103.958>
VStem: 44 117<671.336 754.07>
LayerCount: 2
Fore
SplineSet
44 714 m 3
 44 746 68 769 100 769 c 3
 143 769 161 733 161 687 c 3
 161 632 134 569 92 517 c 1
 46 542 l 1
 75 578 97 614 104 658 c 1
 68 658 44 682 44 714 c 3
EndSplineSet
Validated: 1
EndChar

StartChar: questiondown
Encoding: 191 191 99
Width: 502
Flags: W
HStem: -267 70<160.133 317.689> 449 111<210.229 298.387>
VStem: 37 84<-158.544 -15.896> 199 111<460.229 548.387> 270 77<216.204 309.34>
LayerCount: 2
Fore
SplineSet
121 -87 m 3xe8
 121 -127 132 -197 245 -197 c 3
 348 -197 411 -77 411 -77 c 1
 464 -127 l 1
 464 -127 385 -267 245 -267 c 3
 66 -267 37 -153 37 -87 c 3
 37 21 119 92 190 156 c 0
 234 196 270 232 270 260 c 3
 270 292 251 310 217 340 c 1
 275 388 l 1
 317 350 347 321 347 259 c 3
 347 195 302 149 243 96 c 0
 186 44 121 -17 121 -87 c 3xe8
310 504 m 3xf0
 310 472 286 449 254 449 c 3
 222 449 199 472 199 504 c 3
 199 536 222 560 254 560 c 3
 286 560 310 536 310 504 c 3xf0
EndSplineSet
Validated: 1
EndChar

StartChar: exclamdown
Encoding: 161 161 100
Width: 292
Flags: W
HStem: 441 124<98.4335 193.044>
VStem: 84 124<455.434 550.044> 97 99<-262 80.4615> 110 73<31.5385 374>
LayerCount: 2
Fore
SplineSet
110 374 m 1x90
 183 374 l 1x90
 196 -262 l 1
 97 -262 l 1xa0
 110 374 l 1x90
208 502 m 3xc0
 208 467 181 441 145 441 c 3
 110 441 84 467 84 502 c 3
 84 538 110 565 145 565 c 3
 181 565 208 538 208 502 c 3xc0
EndSplineSet
Validated: 1
EndChar

StartChar: dieresis
Encoding: 168 168 101
Width: 432
Flags: W
HStem: 610 103<73.2363 157.823 274.515 359.102>
VStem: 64 103<619.236 703.823> 265 103<619.236 703.823>
LayerCount: 2
Fore
SplineSet
64 662 m 3
 64 691 86 713 116 713 c 3
 145 713 167 691 167 662 c 3
 167 632 145 610 116 610 c 3
 86 610 64 632 64 662 c 3
265 662 m 3
 265 691 288 713 317 713 c 3
 347 713 368 691 368 662 c 3
 368 632 347 610 317 610 c 3
 288 610 265 632 265 662 c 3
EndSplineSet
Validated: 1
EndChar

StartChar: circumflex
Encoding: 710 710 103
Width: 496
Flags: MW
DStem2: 59 610 150 610 0.730121 0.683318<66.441 202.908> 281 756 248 705 0.730121 -0.683318<10.7552 147.222>
LayerCount: 2
Fore
SplineSet
215 756 m 1
 281 756 l 1
 437 610 l 1
 346 610 l 1
 248 705 l 1
 150 610 l 1
 59 610 l 1
 215 756 l 1
EndSplineSet
Validated: 1
EndChar

StartChar: trademark
Encoding: 8482 8482 104
Width: 850
Flags: W
HStem: 693 57<54 177 248 371>
VStem: 177 71<391 693> 401 70<391 635> 725 71<391 635>
DStem2: 469 750 479 603 0.417122 -0.908851<105.352 294.878>
LayerCount: 2
Fore
SplineSet
471 391 m 1
 401 391 l 1
 401 750 l 1
 469 750 l 1
 592 482 l 1
 600 452 l 1
 608 482 l 1
 728 750 l 1
 796 750 l 1
 796 391 l 1
 725 391 l 1
 725 635 l 1
 717 603 l 1
 632 391 l 1
 566 391 l 1
 479 603 l 1
 471 635 l 1
 471 391 l 1
54 693 m 1
 54 750 l 1
 371 750 l 1
 371 693 l 1
 248 693 l 1
 248 391 l 1
 177 391 l 1
 177 693 l 1
 54 693 l 1
EndSplineSet
Validated: 1
EndChar

StartChar: ellipsis
Encoding: 8230 8230 105
Width: 614
Flags: W
HStem: -7 124<58.9564 153.566 259.956 354.566 460.956 555.566>
VStem: 44 124<7.95644 102.566> 245 124<7.95644 102.566> 446 124<7.95644 102.566>
CounterMasks: 1 70
LayerCount: 2
Fore
SplineSet
44 56 m 3
 44 91 71 117 107 117 c 3
 142 117 168 91 168 56 c 3
 168 20 142 -7 107 -7 c 3
 71 -7 44 20 44 56 c 3
245 56 m 3
 245 91 272 117 308 117 c 3
 343 117 369 91 369 56 c 3
 369 20 343 -7 308 -7 c 3
 272 -7 245 20 245 56 c 3
446 56 m 3
 446 91 473 117 509 117 c 3
 544 117 570 91 570 56 c 3
 570 20 544 -7 509 -7 c 3
 473 -7 446 20 446 56 c 3
EndSplineSet
Validated: 1
EndChar

StartChar: fi
Encoding: 64257 64257 106
Width: 580
Flags: MW
HStem: 480 70<32 103 186 413> 755 70<210.124 343.749>
VStem: 103 83<0 480 550 729.313> 413 83<0 480>
LayerCount: 2
Fore
SplineSet
186 646 m 2
 186 550 l 1
 496 550 l 1
 496 0 l 1
 413 0 l 1
 413 480 l 1
 186 480 l 1
 186 0 l 1
 103 0 l 1
 103 480 l 1
 32 480 l 1
 32 550 l 1
 103 550 l 1
 103 646 l 2
 103 749 150 825 265 825 c 3
 369 825 484 736 484 736 c 1
 433 685 l 1
 433 685 332 755 266 755 c 3
 199 755 187 707 186 646 c 2
EndSplineSet
Validated: 1
Ligature2: "ligaLatinlookup subtable" f i
EndChar

StartChar: tilde
Encoding: 732 732 107
Width: 537
Flags: W
HStem: 615 65<277.027 428.882> 662 65<108.287 260.284>
LayerCount: 2
Fore
SplineSet
448 718 m 1x80
 473 668 l 1
 473 668 429 615 359 615 c 3x80
 331 615 297 626 263 639 c 0
 234 650 202 662 177 662 c 3
 120 662 89 624 89 624 c 1
 64 674 l 1
 64 674 108 727 178 727 c 3x40
 206 727 242 716 274 703 c 0
 303 691 335 680 360 680 c 3
 418 680 448 718 448 718 c 1x80
EndSplineSet
Validated: 1
EndChar

StartChar: bullet
Encoding: 8226 8226 108
Width: 338
Flags: W
HStem: 121 230<102.233 237.542>
VStem: 54 230<169.233 304.542>
LayerCount: 2
Fore
SplineSet
54 238 m 3
 54 303 104 351 171 351 c 3
 236 351 284 303 284 238 c 3
 284 171 236 121 171 121 c 3
 104 121 54 171 54 238 c 3
EndSplineSet
Validated: 1
EndChar

StartChar: copyright
Encoding: 169 169 109
Width: 879
Flags: W
HStem: 0 58<326.483 553.209> 174 63<385.18 505.232> 531 65<390.045 501.456> 712 59<326.483 553.209>
VStem: 54 58<271.791 498.641> 269 71<290.772 475.093> 767 58<271.791 498.641>
LayerCount: 2
Fore
SplineSet
54 385 m 3
 54 599 227 771 440 771 c 3
 653 771 825 599 825 385 c 3
 825 172 653 0 440 0 c 3
 227 0 54 172 54 385 c 3
443 596 m 3
 527 596 570 527 570 527 c 1
 525 484 l 1
 525 484 498 531 441 531 c 3
 396 531 340 483 340 377 c 3
 340 303 380 237 438 237 c 3
 466 237 491 242 535 284 c 1
 577 242 l 1
 516 179 476 174 438 174 c 3
 337 174 269 262 269 377 c 3
 269 528 366 596 443 596 c 3
112 385 m 3
 112 206 260 58 440 58 c 3
 619 58 767 206 767 385 c 3
 767 565 619 712 440 712 c 3
 260 712 112 565 112 385 c 3
EndSplineSet
Validated: 1
EndChar

StartChar: registered
Encoding: 174 174 110
Width: 879
Flags: W
HStem: 0 58<326.483 553.209> 345 50<354 426.176> 546 54<356.625 498.662> 712 59<326.483 553.209>
VStem: 54 58<271.791 498.641> 292 62<178 345 395 533.973 580 594> 514 61<417.635 529.543> 767 58<271.791 498.641>
LayerCount: 2
Fore
SplineSet
354 178 m 1
 292 178 l 1
 292 594 l 1
 354 594 l 1
 354 580 l 1
 385 597 415 600 450 600 c 3
 505 600 575 567 575 479 c 3
 575 397 532 365 483 351 c 1
 503 332 529 301 547 276 c 0
 571 243 598 209 640 178 c 1
 555 178 l 1
 533 194 511 223 491 252 c 0
 463 290 425 332 394 345 c 1
 354 345 l 1
 354 178 l 1
435 395 m 2
 469 396 514 411 514 479 c 3
 514 531 478 546 435 546 c 3
 405 546 379 538 354 523 c 1
 354 395 l 1
 435 395 l 2
54 385 m 3
 54 599 227 771 440 771 c 3
 653 771 825 599 825 385 c 3
 825 172 653 0 440 0 c 3
 227 0 54 172 54 385 c 3
112 385 m 3
 112 206 260 58 440 58 c 3
 619 58 767 206 767 385 c 3
 767 565 619 712 440 712 c 3
 260 712 112 565 112 385 c 3
EndSplineSet
Validated: 1
EndChar

StartChar: cent
Encoding: 162 162 111
Width: 508
Flags: W
HStem: -12 74<242.318 362.964> 487 75<223.339 293.746>
VStem: 54 84<155.387 383.644>
DStem2: 143 -90 201 -90 0.253215 0.96741<14.6865 104.399 198.403 596.431 669.111 770.097>
LayerCount: 2
Fore
SplineSet
338 655 m 1
 396 655 l 1
 367 547 l 1
 428 522 459 474 459 474 c 1
 406 424 l 1
 406 424 388 456 348 474 c 1
 242 69 l 1
 255 64 268 62 283 62 c 3
 322 62 358 69 417 125 c 1
 469 75 l 1
 390 -6 334 -12 283 -12 c 3
 262 -12 242 -9 223 -4 c 1
 201 -90 l 1
 143 -90 l 1
 171 19 l 1
 98 64 54 156 54 265 c 3
 54 472 183 562 290 562 c 3
 298 562 306 561 313 560 c 1
 338 655 l 1
138 265 m 3
 138 199 158 140 193 102 c 1
 294 487 l 1
 288 487 l 2
 219 487 138 415 138 265 c 3
EndSplineSet
Validated: 1
EndChar

StartChar: caron
Encoding: 711 711 112
Width: 496
Flags: MW
DStem2: 150 751 59 751 0.730121 -0.683318<0 136.467> 248 656 281 605 0.730121 0.683318<0 136.467>
LayerCount: 2
Fore
SplineSet
281 605 m 1
 215 605 l 1
 59 751 l 1
 150 751 l 1
 248 656 l 1
 346 751 l 1
 437 751 l 1
 281 605 l 1
EndSplineSet
Validated: 1
EndChar

StartChar: dotlessi
Encoding: 305 305 124
Width: 251
Flags: MW
HStem: 669 101
VStem: 84 83<0 550 0 550>
LayerCount: 2
Fore
SplineSet
84 550 m 1
 167 550 l 1
 167 0 l 1
 84 0 l 1
 84 550 l 1
EndSplineSet
Validated: 1
EndChar

StartChar: germandbls
Encoding: 223 223 162
Width: 650
Flags: W
HStem: 0 82<258.944 434.98> 396 72<256 352.342> 480 70<32 103> 751 76<229.689 386.521>
VStem: 103 83<0 480 550 708.445> 442 84<546.653 698.305> 507 84<149.799 321.368>
LayerCount: 2
Fore
SplineSet
256 396 m 1xfa
 256 468 l 1
 326 471 442 497 442 633 c 3
 442 724 355 751 313 751 c 3
 241 751 192 722 186 646 c 1
 186 0 l 1
 103 0 l 1
 103 480 l 1
 32 480 l 1
 32 550 l 1
 103 550 l 1
 103 646 l 2
 103 773 195 827 313 827 c 3
 394 827 526 787 526 631 c 3xfc
 526 542 491 485 445 451 c 1
 522 428 591 364 591 246 c 3
 591 135 556 0 327 0 c 3
 309 0 280 4 258 12 c 1
 258 90 l 1
 276 85 305 82 326 82 c 3
 474 82 507 159 507 246 c 3
 507 381 366 396 256 396 c 1xfa
EndSplineSet
Validated: 1
EndChar

StartChar: ring
Encoding: 730 730 163
Width: 316
Flags: W
HStem: 597 48<120.416 196.358> 738 47<120.095 196.671>
VStem: 64 48<653.416 729.358> 205 47<653.095 729.671>
LayerCount: 2
Fore
SplineSet
160 597 m 3
 107 597 64 640 64 693 c 3
 64 744 107 785 160 785 c 3
 211 785 252 744 252 693 c 3
 252 640 211 597 160 597 c 3
112 693 m 3
 112 667 134 645 160 645 c 3
 183 645 205 667 205 693 c 3
 205 716 183 738 160 738 c 3
 134 738 112 716 112 693 c 3
EndSplineSet
Validated: 1
EndChar

StartChar: breve
Encoding: 728 728 167
Width: 433
Flags: W
HStem: 601 64<159.865 278.368>
VStem: 59 61<704.259 750> 314 60<700.888 750>
LayerCount: 2
Fore
SplineSet
59 750 m 1
 59 750 120 750 120 750 c 1
 125 707 169 665 220 665 c 3
 271 665 309 707 314 750 c 1
 374 750 l 1
 364 673 306 601 220 601 c 3
 134 601 69 673 59 750 c 1
EndSplineSet
Validated: 1
EndChar

StartChar: AE
Encoding: 198 198 168
Width: 978
Flags: W
HStem: 0 76<590 938.971> 262 76<309 502> 361 76<590 875> 695 75<590 924.971>
VStem: 502 88<76 262 338 361 437 683>
DStem2: 24 0 121 0 0.483228 0.875495<46.8731 346.804 433.637 828.946>
LayerCount: 2
Fore
SplineSet
939 0 m 1
 502 0 l 1
 502 262 l 1
 267 262 l 1
 121 0 l 1
 24 0 l 1
 449 770 l 1
 820 770 l 2
 885 770 925 775 925 775 c 1
 925 695 l 1
 590 695 l 1
 590 437 l 1
 875 437 l 1
 875 361 l 1
 590 361 l 1
 590 76 l 1
 834 76 l 2
 899 76 939 81 939 81 c 1
 939 0 l 1
502 683 m 1
 309 338 l 1
 502 338 l 1
 502 683 l 1
EndSplineSet
Validated: 1
Substitution2: "c2scLatinlookup subtable" ae.sc
EndChar

StartChar: OE
Encoding: 338 338 169
Width: 957
Flags: W
HStem: -15 76<287.357 472.749> 0 76<569 917.971> 361 76<569 854> 695 75<569 903.971> 710 75<288.673 471.797>
VStem: 59 88<230.375 538.61> 481 88<77.2523 361 437 693.921>
LayerCount: 2
Fore
SplineSet
918 0 m 1x76
 481 0 l 1x76
 481 0 413 -15 377 -15 c 3
 230 -15 59 70 59 384 c 3
 59 697 230 785 380 785 c 3xae
 413 785 448 781 481 770 c 1
 799 770 l 2
 864 770 904 775 904 775 c 1
 904 695 l 1
 569 695 l 1
 569 437 l 1
 854 437 l 1
 854 361 l 1
 569 361 l 1
 569 76 l 1
 813 76 l 2
 878 76 918 81 918 81 c 1
 918 0 l 1x76
481 87 m 1
 481 683 l 1
 449 702 414 710 380 710 c 3
 276 710 147 631 147 386 c 3
 147 137 276 61 377 61 c 3xae
 412 61 448 69 481 87 c 1
EndSplineSet
Validated: 1
Substitution2: "c2scLatinlookup subtable" oe.sc
EndChar

StartChar: fl
Encoding: 64258 64258 170
Width: 617
Flags: MW
HStem: -12 71<519 580> 480 70<32 103 186 348> 755 70<204.343 336.493>
VStem: 103 83<0 480 550 736.939> 423 83<73.048 820>
LayerCount: 2
Fore
SplineSet
186 646 m 2
 186 550 l 1
 348 550 l 1
 348 480 l 1
 186 480 l 1
 186 0 l 1
 103 0 l 1
 103 480 l 1
 32 480 l 1
 32 550 l 1
 103 550 l 1
 103 646 l 2
 103 749 143 825 258 825 c 3
 300 825 347 807 381 790 c 1
 381 710 l 1
 381 710 310 755 258 755 c 3
 191 755 187 707 186 646 c 2
EndSplineSet
Refer: 5 108 N 1 0 0 1 339 0 2
Validated: 1
Ligature2: "ligaLatinlookup subtable" f l
LCarets2: 1 0
EndChar

StartChar: dotaccent
Encoding: 729 729 171
Width: 191
Flags: W
HStem: 667 103<53.2363 137.823>
VStem: 44 103<676.236 760.823>
LayerCount: 2
Fore
SplineSet
44 719 m 3
 44 748 66 770 96 770 c 3
 125 770 147 748 147 719 c 3
 147 689 125 667 96 667 c 3
 66 667 44 689 44 719 c 3
EndSplineSet
Validated: 1
EndChar

StartChar: ae
Encoding: 230 230 172
Width: 896
Flags: W
HStem: -12 70<157.116 298.414 539.548 698.57> 279 74<468 747> 483 78<219.138 362.054> 490 72<541.202 680.006>
VStem: 54 82<80.6221 202.951> 377 80<151.094 266>
DStem2: 252 318 261 248 0.983553 0.180622<-105.734 113.552>
LayerCount: 2
Fore
SplineSet
209 58 m 3xcc
 270 58 342 90 391 151 c 1
 390 157 l 1
 380 191 377 227 377 266 c 1
 349 260 321 256 261 248 c 0
 153 234 136 184 136 138 c 3
 136 69 192 58 209 58 c 3xcc
97 406 m 1
 64 474 l 1
 100 495 217 561 328 561 c 3xec
 395 561 429 525 446 485 c 1
 486 533 542 562 610 562 c 3xdc
 815 562 832 357 832 318 c 2
 832 279 l 1
 457 279 l 1
 457 263 l 2
 457 142 512 60 614 60 c 3
 676 60 728 82 784 157 c 1
 835 108 l 1
 758 15 701 -12 614 -12 c 3
 523 -12 458 30 419 94 c 1
 369 36 291 -12 209 -12 c 3
 187 -12 54 -1 54 138 c 3
 54 209 83 293 252 318 c 0
 325 328 354 334 378 340 c 1
 378 403 l 2
 378 424 373 483 316 483 c 3xec
 231 483 97 406 97 406 c 1
610 490 m 3xdc
 536 490 490 430 468 353 c 1
 747 353 l 1
 738 409 704 490 610 490 c 3xdc
EndSplineSet
Validated: 1
Substitution2: "smcpLatinlookup subtable" ae.sc
EndChar

StartChar: Oslash
Encoding: 216 216 173
Width: 755
Flags: W
HStem: -15 76<284.874 470.797> 710 75<288.673 469.713>
VStem: 59 88<230.018 538.61> 608 88<230.464 540.413>
DStem2: 122 -35 200 -35 0.45651 0.889718<35.6078 97.1511 199.912 782.94 883.292 944.119>
LayerCount: 2
Fore
SplineSet
380 785 m 3
 428 785 479 775 525 751 c 1
 553 805 l 1
 631 805 l 1
 582 711 l 1
 648 651 695 549 696 386 c 3
 696 71 535 -15 377 -15 c 3
 327 -15 275 -5 228 19 c 1
 200 -35 l 1
 122 -35 l 1
 170 59 l 1
 105 119 59 220 59 384 c 3
 59 697 230 785 380 785 c 3
608 384 m 3
 608 499 581 578 541 630 c 1
 266 94 l 1
 302 70 341 61 377 61 c 3
 487 61 607 136 608 384 c 3
380 710 m 3
 276 710 147 631 147 386 c 3
 147 271 174 194 213 143 c 1
 488 678 l 1
 454 700 416 710 380 710 c 3
EndSplineSet
Validated: 1
Substitution2: "c2scLatinlookup subtable" oslash.sc
EndChar

StartChar: oe
Encoding: 339 339 174
Width: 971
Flags: W
HStem: -12 68<220.552 366.632 616.129 768.824> 279 74<542 821> 493 69<220.552 365.486 620.454 752.583>
VStem: 54 84<153.542 395.383> 448 83<152.865 279>
LayerCount: 2
Fore
SplineSet
448 275 m 3
 448 430 369 493 293 493 c 3
 217 493 138 435 138 275 c 3
 138 117 217 56 293 56 c 3
 369 56 448 114 448 275 c 3
54 275 m 3
 54 485 173 562 293 562 c 3
 371 562 449 528 493 447 c 1
 533 516 600 562 684 562 c 3
 889 562 906 357 906 318 c 2
 906 279 l 1
 531 279 l 1
 531 128 594 60 688 60 c 3
 742 60 792 73 858 157 c 1
 909 108 l 1
 831 11 768 -12 688 -12 c 3
 594 -12 529 31 490 97 c 1
 446 19 370 -12 293 -12 c 3
 173 -12 54 58 54 275 c 3
684 490 m 3
 610 490 564 430 542 353 c 1
 821 353 l 1
 812 409 778 490 684 490 c 3
EndSplineSet
Validated: 1
Substitution2: "smcpLatinlookup subtable" oe.sc
EndChar

StartChar: cedilla
Encoding: 184 184 175
Width: 325
Flags: MW
HStem: -204 46<100.822 193.676>
VStem: 197 64<-153.75 -89.8688>
LayerCount: 2
Fore
SplineSet
197 -123 m 3
 197 -95 173 -82 135 -81 c 2
 116 -81 l 1
 163 0 l 1
 216 0 l 1
 191 -52 l 1
 232 -58 261 -77 261 -123 c 3
 261 -164 231 -204 155 -204 c 3
 106 -204 78 -178 64 -164 c 1
 92 -128 l 1
 102 -138 124 -158 155 -158 c 3
 185 -158 197 -140 197 -123 c 3
EndSplineSet
Validated: 1
EndChar

StartChar: oslash
Encoding: 248 248 176
Width: 586
Flags: W
HStem: -12 68<227.107 365.448> 493 69<220.552 355.479>
VStem: 54 84<151.742 395.383> 448 84<153.879 393.67>
DStem2: 94 -32 172 -32 0.45761 0.889153<35.6936 82.2748 175.317 553.158 643.986 690.545>
LayerCount: 2
Fore
SplineSet
54 275 m 3
 54 485 173 562 293 562 c 3
 326 562 359 556 390 543 c 1
 410 582 l 1
 488 582 l 1
 448 505 l 1
 498 460 532 386 532 275 c 3
 532 63 413 -12 293 -12 c 3
 258 -12 224 -6 192 7 c 1
 172 -32 l 1
 94 -32 l 1
 133 45 l 1
 86 89 54 162 54 275 c 3
448 275 m 3
 448 343 432 393 409 428 c 1
 226 73 l 1
 247 61 270 56 293 56 c 3
 369 56 448 114 448 275 c 3
138 275 m 3
 138 208 152 159 174 124 c 1
 356 477 l 1
 336 487 314 493 293 493 c 3
 217 493 138 435 138 275 c 3
EndSplineSet
Validated: 1
Substitution2: "smcpLatinlookup subtable" oslash.sc
EndChar

StartChar: ogonek
Encoding: 731 731 177
Width: 318
Flags: W
HStem: -156 54<120.04 209.285>
VStem: 64 53<-97.1675 -9.81096>
LayerCount: 2
Fore
SplineSet
64 -69 m 0
 64 -8 144 51 144 51 c 1
 176 31 l 1
 176 31 117 -9 117 -67 c 0
 117 -91 141 -102 159 -102 c 3
 181 -102 201 -91 214 -75 c 1
 254 -111 l 1
 231 -137 197 -156 159 -156 c 3
 117 -156 64 -128 64 -69 c 0
EndSplineSet
Validated: 1
EndChar

StartChar: periodcentered
Encoding: 183 183 180
Width: 245
Flags: W
HStem: 215 117<77.0994 168.475>
VStem: 64 117<228.099 319.475>
LayerCount: 2
Fore
SplineSet
64 275 m 3
 64 308 89 332 124 332 c 3
 157 332 181 308 181 275 c 3
 181 240 157 215 124 215 c 3
 89 215 64 240 64 275 c 3
EndSplineSet
Validated: 1
EndChar

StartChar: Eth
Encoding: 208 208 181
Width: 775
Flags: W
HStem: 0 76<235 491.734> 367 70<69 147 235 415> 700 75<235.62 481.303>
VStem: 147 88<76 367 437 692.881> 628 88<242.129 539.781>
LayerCount: 2
Fore
SplineSet
628 380 m 3
 628 569 570 700 356 700 c 3
 291 700 250 692 235 689 c 1
 235 437 l 1
 415 437 l 1
 415 367 l 1
 235 367 l 1
 235 76 l 1
 235 76 402 76 402 76 c 2
 531 76 628 190 628 380 c 3
147 0 m 1
 147 367 l 1
 69 367 l 1
 69 437 l 1
 147 437 l 1
 147 757 l 1
 244 770 292 775 354 775 c 3
 539 775 716 717 716 380 c 3
 716 138 587 0 402 0 c 2
 147 0 l 1
EndSplineSet
Validated: 1
Substitution2: "c2scLatinlookup subtable" eth.sc
EndChar

StartChar: eth
Encoding: 240 240 182
Width: 609
Flags: W
HStem: -8 74<214.94 365.374> 448 74<214.392 368.256> 696 74<166.051 266>
VStem: 54 84<151.464 354.066> 467 84<204.625 366.557>
DStem2: 215 616 267 584 0.54395 0.839117<1.43367 94.0317 189.202 236.909>
LayerCount: 2
Fore
SplineSet
255 770 m 3
 274 770 293 768 311 764 c 1
 344 815 l 1
 396 781 l 1
 370 741 l 1
 495 674 551 500 551 361 c 3
 551 127 457 -8 291 -8 c 3
 111 -8 54 148 54 242 c 3
 54 403 145 522 281 522 c 3
 344 522 404 498 460 447 c 1
 444 543 402 639 328 678 c 1
 267 584 l 1
 215 616 l 1
 266 695 l 2
 262 696 259 696 255 696 c 3
 198 696 166 676 141 660 c 1
 105 722 l 1
 138 744 180 770 255 770 c 3
291 66 m 3
 399 66 462 167 467 341 c 1
 410 414 348 448 281 448 c 3
 197 448 138 359 138 242 c 3
 138 176 175 66 291 66 c 3
EndSplineSet
Validated: 1
Substitution2: "smcpLatinlookup subtable" eth.sc
EndChar

StartChar: yen
Encoding: 165 165 183
Width: 615
Flags: MW
HStem: 168 67<82 265 352 533> 328 67<82 248 368 533>
VStem: 265 87<0 168 235 328>
DStem2: 112 770 9 770 0.537457 -0.843291<0 366.456> 309 461 368 395 0.535855 0.84431<0 366.991>
LayerCount: 2
Fore
SplineSet
533 235 m 1
 533 168 l 1
 352 168 l 1
 352 0 l 1
 265 0 l 1
 265 168 l 1
 82 168 l 1
 82 235 l 1
 265 235 l 1
 265 328 l 1
 82 328 l 1
 82 395 l 1
 248 395 l 1
 9 770 l 1
 112 770 l 1
 309 461 l 1
 507 770 l 1
 606 770 l 1
 368 395 l 1
 533 395 l 1
 533 328 l 1
 352 328 l 1
 352 235 l 1
 533 235 l 1
EndSplineSet
Validated: 1
EndChar

StartChar: Thorn
Encoding: 222 222 184
Width: 627
Flags: MW
HStem: 133 80<237.595 406.992> 601 77<221.12 396.752>
VStem: 84 88<0 185 261.731 564.025 633 770> 483 85<304.412 515.443>
LayerCount: 2
Fore
SplineSet
172 0 m 1
 84 0 l 1
 84 770 l 1
 172 770 l 1
 172 633 l 1
 218 660 277 678 336 678 c 3
 473 678 568 574 568 425 c 3
 568 233 479 133 329 133 c 3
 261 133 213 157 172 185 c 1
 172 0 l 1
483 425 m 3
 483 528 417 601 307 601 c 3
 260 601 215 582 172 550 c 1
 172 278 l 1
 218 237 273 213 333 213 c 3
 422 213 483 282 483 425 c 3
EndSplineSet
Validated: 1
Substitution2: "c2scLatinlookup subtable" thorn.sc
EndChar

StartChar: thorn
Encoding: 254 254 187
Width: 622
Flags: W
HStem: -12 82<256.27 406.528> 480 82<280.249 423.098>
VStem: 84 82<-260 64 136.11 380.564 458 770> 484 84<163.493 399.48>
LayerCount: 2
Fore
SplineSet
166 -260 m 1
 84 -260 l 1
 84 770 l 1
 166 770 l 1
 166 458 l 1
 211 516 280 562 370 562 c 3
 492 562 568 429 568 284 c 3
 568 97 480 -12 337 -12 c 3
 287 -12 222 19 166 64 c 1
 166 -260 l 1
370 480 m 3
 266 480 198 400 166 350 c 1
 166 156 l 1
 215 107 285 70 337 70 c 3
 426 70 484 149 484 284 c 3
 484 385 440 480 370 480 c 3
EndSplineSet
Validated: 1
Substitution2: "smcpLatinlookup subtable" thorn.sc
EndChar

StartChar: sterling
Encoding: 163 163 188
Width: 589
Flags: W
HStem: -12 74<311.578 446.668> 266 70<90 162 260 406> 755 70<359.967 454.867>
DStem2: 135 122 218 120 0.19906 0.979987<12.7339 146.493 234.6 648.491>
LayerCount: 2
Fore
SplineSet
166 53 m 3
 121 53 88 -9 88 -9 c 1
 26 25 l 1
 26 25 67 102 135 122 c 1
 162 266 l 1
 90 266 l 1
 90 336 l 1
 176 336 l 1
 203 474 235 631 252 698 c 0
 279 801 367 825 404 825 c 3
 465 825 500 789 551 736 c 1
 497 692 l 1
 461 730 437 755 404 755 c 3
 387 755 347 741 332 680 c 0
 316 619 286 471 260 336 c 1
 406 336 l 1
 406 266 l 1
 246 266 l 1
 218 120 l 1
 245 113 271 102 295 91 c 0
 327 76 360 62 392 62 c 3
 436 62 493 122 493 122 c 1
 543 72 l 1
 543 72 464 -12 392 -12 c 3
 344 -12 304 5 265 23 c 0
 232 38 198 53 166 53 c 3
EndSplineSet
Validated: 1
EndChar

StartChar: paragraph
Encoding: 182 182 189
Width: 732
Flags: W
HStem: 713 57<452 521 578 653>
VStem: 49 403<375.135 603.359> 395 57<-250 278> 521 57<-250 713>
LayerCount: 2
Fore
SplineSet
452 -250 m 1xb0
 395 -250 l 1
 395 278 l 1xb0
 395 278 324 227 250 227 c 3
 141 227 49 336 49 498 c 3xd0
 49 647 158 770 320 770 c 2
 653 770 l 1
 653 713 l 1
 578 713 l 1
 578 -250 l 1
 521 -250 l 1
 521 713 l 1
 452 713 l 1
 452 -250 l 1xb0
EndSplineSet
Validated: 1
EndChar

StartChar: zero.lnum
Encoding: 65537 -1 190
Width: 677
Flags: W
HStem: -15 81<259.494 420.297> 688 77<260.311 419.719>
VStem: 59 88<218.278 540.896> 530 88<214.808 540.896>
LayerCount: 2
Fore
SplineSet
59 375 m 3
 59 672 195 765 340 765 c 3
 485 765 618 672 618 375 c 3
 618 78 485 -15 340 -15 c 3
 195 -15 59 78 59 375 c 3
530 375 m 3
 530 599 449 688 340 688 c 3
 233 688 147 599 147 375 c 3
 147 152 239 66 340 66 c 3
 442 66 530 152 530 375 c 3
EndSplineSet
Validated: 1
EndChar

StartChar: one.lnum
Encoding: 65538 -1 191
Width: 363
Flags: MW
VStem: 192 89<0 655>
LayerCount: 2
Fore
SplineSet
281 0 m 1
 192 0 l 1
 192 655 l 1
 103 580 l 1
 49 642 l 1
 192 750 l 1
 281 750 l 1
 281 0 l 1
EndSplineSet
Validated: 1
EndChar

StartChar: two.lnum
Encoding: 65539 -1 192
Width: 536
Flags: W
HStem: 0 76<165 482> 688 77<185.98 331.836>
VStem: 380 83<498.176 641.214>
LayerCount: 2
Fore
SplineSet
114 589 m 1
 114 589 60 643 60 644 c 0
 89 692 150 764 260 765 c 3
 375 765 463 697 463 579 c 3
 463 458 277 217 165 76 c 1
 482 76 l 1
 482 0 l 1
 49 0 l 1
 49 64 l 1
 49 64 380 437 380 577 c 3
 380 651 318 688 259 688 c 3
 162 688 114 589 114 589 c 1
EndSplineSet
Validated: 1
EndChar

StartChar: three.lnum
Encoding: 65540 -1 193
Width: 543
Flags: W
HStem: -15 80<101.714 287.159> 686 79<150.471 290.227>
VStem: 316 82<539.781 660.724> 403 82<182.435 342.893>
LayerCount: 2
Fore
SplineSet
102 617 m 1
 55 663 l 1
 55 663 108 765 230 765 c 3
 320 765 398 700 398 608 c 3
 398 546 354 500 310 465 c 1
 403 453 485 378 485 277 c 3
 485 76 317 -15 199 -15 c 3
 104 -15 34 46 34 46 c 1
 87 96 l 1
 87 96 125 65 199 65 c 3
 281 65 403 130 403 277 c 3
 403 339 347 398 282 398 c 3
 211 398 141 373 141 373 c 1
 141 441 l 1
 234 476 316 525 316 608 c 3
 316 656 275 686 231 686 c 3
 139 686 102 617 102 617 c 1
EndSplineSet
Validated: 1
EndChar

StartChar: four.lnum
Encoding: 65541 -1 194
Width: 621
Flags: MW
HStem: 184 76<144 398 487 592>
VStem: 398 89<0 184 260 596>
DStem2: 34 231 158 271 0.602703 0.797966<87.0444 510.641>
LayerCount: 2
Fore
SplineSet
592 260 m 1
 592 184 l 1
 487 184 l 1
 487 0 l 1
 398 0 l 1
 398 184 l 1
 34 184 l 1
 34 231 l 1
 426 750 l 1
 487 750 l 1
 487 260 l 1
 592 260 l 1
163 260 m 1
 398 260 l 1
 398 596 l 1
 158 271 l 1
 144 257 l 1
 144 256 l 1
 163 260 l 1
EndSplineSet
Validated: 1
EndChar

StartChar: five.lnum
Encoding: 65542 -1 195
Width: 596
Flags: W
HStem: -15 74<190.632 363.369> 432 73<188.102 373.461> 675 75<178 476>
VStem: 90 88<479 675> 452 81<159.118 353.949>
LayerCount: 2
Fore
SplineSet
178 675 m 1
 178 479 l 1
 207 492 238 505 289 505 c 3
 449 505 533 409 533 280 c 3
 533 70 425 -15 278 -15 c 3
 147 -15 69 71 69 71 c 1
 117 130 l 1
 117 130 189 59 278 59 c 3
 374 59 452 123 452 278 c 3
 452 347 400 432 289 432 c 3
 244 432 199 425 156 396 c 1
 90 396 l 1
 90 750 l 1
 476 750 l 1
 476 675 l 1
 178 675 l 1
EndSplineSet
Validated: 1
EndChar

StartChar: six.lnum
Encoding: 65543 -1 196
Width: 608
Flags: W
HStem: -15 73<239.127 390.738> 387 74<265.667 414.749> 686 79<276.782 434.605>
VStem: 63 79<331 476.507> 466 83<143.529 331.074>
LayerCount: 2
Fore
SplineSet
340 461 m 3
 452 461 549 403 549 237 c 3
 549 144 493 -15 316 -15 c 3
 155 -15 63 114 63 344 c 3
 63 570 182 765 346 765 c 3
 433 765 503 712 518 700 c 1
 465 645 l 1
 465 645 417 686 350 686 c 3
 196 686 145 464 142 331 c 1
 208 433 280 461 340 461 c 3
316 58 m 3
 430 58 466 172 466 237 c 3
 466 350 407 387 340 387 c 3
 284 387 213 353 153 225 c 1
 174 118 232 58 316 58 c 3
EndSplineSet
Validated: 1
EndChar

StartChar: seven.lnum
Encoding: 65544 -1 197
Width: 506
Flags: W
HStem: 667 83<45 375>
LayerCount: 2
Fore
SplineSet
45 667 m 1
 45 750 l 1
 477 750 l 1
 477 691 l 1
 397 522 144 30 61 -6 c 1
 4 47 l 1
 66 85 279 470 375 667 c 1
 45 667 l 1
EndSplineSet
Validated: 1
EndChar

StartChar: eight.lnum
Encoding: 65545 -1 198
Width: 582
Flags: W
HStem: -15 70<194.56 385.633> 700 65<203.054 377.339>
VStem: 64 81<100.881 245.389> 83 82<533.185 662.437> 415 84<529.262 663.43> 435 83<100.881 221.2>
LayerCount: 2
Fore
SplineSet
499 601 m 3xd8
 499 498 402 422 346 388 c 1
 434 326 518 256 518 164 c 3
 518 31 410 -15 290 -15 c 0
 170 -15 64 31 64 164 c 3xe4
 64 267 152 349 217 389 c 1
 143 448 83 517 83 601 c 3
 83 725 192 765 290 765 c 3
 388 765 499 725 499 601 c 3xd8
435 164 m 3
 435 224 358 287 272 350 c 1
 217 315 145 251 145 164 c 3
 145 74 230 55 290 55 c 0
 350 55 435 74 435 164 c 3
287 431 m 1
 325 451 415 512 415 601 c 3
 415 679 350 700 290 700 c 3
 231 700 165 679 165 601 c 3xd8
 165 537 223 483 287 431 c 1
EndSplineSet
Validated: 1
EndChar

StartChar: nine.lnum
Encoding: 65546 -1 199
Width: 608
Flags: W
HStem: -15 79<173.395 331.218> 289 74<193.251 342.333> 692 73<217.262 368.873>
VStem: 59 83<418.926 606.471> 466 79<273.493 419>
LayerCount: 2
Fore
SplineSet
268 289 m 3
 156 289 59 347 59 513 c 3
 59 606 115 765 292 765 c 3
 453 765 545 636 545 406 c 3
 545 180 426 -15 262 -15 c 3
 175 -15 105 38 90 50 c 1
 143 105 l 1
 143 105 191 64 258 64 c 3
 412 64 463 286 466 419 c 1
 400 317 328 289 268 289 c 3
292 692 m 3
 178 692 142 578 142 513 c 3
 142 400 201 363 268 363 c 3
 324 363 395 397 455 525 c 1
 434 632 376 692 292 692 c 3
EndSplineSet
Validated: 1
EndChar

StartChar: ff
Encoding: 64256 64256 200
Width: 652
Flags: MW
HStem: 480 70<27 98 181 369 452 614> 755 70<199.343 331.664 469.572 602.86>
VStem: 98 83<0 480 550 736.939> 369 83<0 480 550 709.062>
LayerCount: 2
Fore
SplineSet
452 646 m 2
 452 550 l 1
 614 550 l 1
 614 480 l 1
 452 480 l 1
 452 0 l 1
 369 0 l 1
 369 480 l 1
 181 480 l 1
 181 0 l 1
 98 0 l 1
 98 480 l 1
 27 480 l 1
 27 550 l 1
 98 550 l 1
 98 646 l 2
 98 749 138 825 253 825 c 3
 308 825 371 794 404 775 c 1
 429 806 467 825 524 825 c 3
 603 825 698 761 698 761 c 1
 647 710 l 1
 647 710 576 755 524 755 c 3
 457 755 453 707 452 646 c 2
181 646 m 2
 181 550 l 1
 369 550 l 1
 369 646 l 2
 369 669 371 690 375 710 c 0
 372 712 303 755 253 755 c 3
 186 755 182 707 181 646 c 2
EndSplineSet
Validated: 1
Ligature2: "ligaLatinlookup subtable" f f
LCarets2: 1 0
EndChar

StartChar: f_f_i
Encoding: 64259 64259 201
Width: 851
Flags: MW
HStem: 480 70<32 103 186 374 457 684> 755 70<204.343 336.449 479.941 614.749>
VStem: 103 83<0 480 550 736.939> 374 83<0 480 550 709.062> 684 83<0 480>
LayerCount: 2
Fore
SplineSet
457 646 m 2
 457 550 l 1
 767 550 l 1
 767 0 l 1
 684 0 l 1
 684 480 l 1
 457 480 l 1
 457 0 l 1
 374 0 l 1
 374 480 l 1
 186 480 l 1
 186 0 l 1
 103 0 l 1
 103 480 l 1
 32 480 l 1
 32 550 l 1
 103 550 l 1
 103 646 l 2
 103 749 143 825 258 825 c 3
 314 825 380 792 412 773 c 1
 438 805 478 825 536 825 c 3
 640 825 755 736 755 736 c 1
 704 685 l 1
 704 685 603 755 537 755 c 3
 470 755 458 707 457 646 c 2
186 646 m 2
 186 550 l 1
 374 550 l 1
 374 646 l 2
 374 669 376 690 381 710 c 1
 381 710 310 755 258 755 c 3
 191 755 187 707 186 646 c 2
EndSplineSet
Validated: 1
Ligature2: "ligaLatinlookup subtable" f f i
EndChar

StartChar: f_f_l
Encoding: 64260 64260 202
Width: 888
Flags: MW
HStem: -12 71<790 851> 480 70<32 103 186 374 457 619> 755 70<204.343 336.664 474.572 607.493>
VStem: 103 83<0 480 550 736.939> 374 83<0 480 550 709.062> 694 83<73.048 820>
LayerCount: 2
Fore
SplineSet
457 646 m 2
 457 550 l 1
 619 550 l 1
 619 480 l 1
 457 480 l 1
 457 0 l 1
 374 0 l 1
 374 480 l 1
 186 480 l 1
 186 0 l 1
 103 0 l 1
 103 480 l 1
 32 480 l 1
 32 550 l 1
 103 550 l 1
 103 646 l 2
 103 749 143 825 258 825 c 3
 313 825 376 794 409 775 c 1
 434 806 472 825 529 825 c 3
 571 825 618 807 652 790 c 1
 652 710 l 1
 652 710 581 755 529 755 c 3
 462 755 458 707 457 646 c 2
186 646 m 2
 186 550 l 1
 374 550 l 1
 374 646 l 2
 374 669 376 690 380 710 c 0
 377 712 308 755 258 755 c 3
 191 755 187 707 186 646 c 2
EndSplineSet
Refer: 5 108 N 1 0 0 1 610 0 2
Validated: 1
Ligature2: "ligaLatinlookup subtable" f f l
LCarets2: 2 0 0
EndChar

StartChar: fj
Encoding: 65547 -1 203
Width: 580
Flags: MW
HStem: 480 70<32 103 186 413> 755 70<210.124 343.749>
VStem: 103 83<0 480 550 729.313> 413 83<-139.071 480>
LayerCount: 2
Fore
SplineSet
186 646 m 2
 186 550 l 1
 496 550 l 1
 496 -43 l 2
 496 -169 420 -254 359 -275 c 1
 334 -196 l 1
 373 -191 413 -122 413 -43 c 2
 413 480 l 1
 186 480 l 1
 186 0 l 1
 103 0 l 1
 103 480 l 1
 32 480 l 1
 32 550 l 1
 103 550 l 1
 103 646 l 2
 103 749 150 825 265 825 c 3
 369 825 484 736 484 736 c 1
 433 685 l 1
 433 685 332 755 266 755 c 3
 199 755 187 707 186 646 c 2
EndSplineSet
Validated: 1
Ligature2: "ligaLatinlookup subtable" f j
EndChar

StartChar: g
Encoding: 103 103 204
Width: 613
Flags: W
HStem: -275 73<208.824 409.857> 41 73<192.227 431.784> 197 64<222.617 376.016> 500 64<217.242 366.69> 540 74<433.064 561.473>
VStem: 59 82<-146.829 -10.5717> 78 83<307.908 450.486> 92 84<118.856 168.5> 428 83<311.674 451.043> 497 83<-125.202 -4.39132>
LayerCount: 2
Fore
SplineSet
161 388 m 3xf280
 161 274 245 261 295 261 c 3
 345 261 428 283 428 388 c 3
 428 470 345 500 295 500 c 3
 245 500 161 470 161 388 c 3xf280
92 122 m 3xe9
 92 157 123 194 163 226 c 1
 117 252 78 300 78 388 c 3
 78 513 213 564 295 564 c 3xf2
 315 564 338 561 362 555 c 1
 403 592 460 614 513 614 c 3
 532 614 553 610 573 604 c 1
 559 534 l 1
 547 538 531 540 513 540 c 3
 485 540 456 534 432 524 c 1
 476 496 511 452 511 388 c 3
 511 229 377 197 295 197 c 3
 277 197 256 198 235 202 c 1
 203 179 176 150 176 122 c 1xe980
 183 115 273 115 296 114 c 0
 427 107 580 83 580 -50 c 3
 580 -171 492 -275 299 -275 c 3
 173 -275 59 -194 59 -98 c 3xec40
 59 -10 95 22 143 57 c 1
 115 69 92 88 92 122 c 3xe9
299 -202 m 3
 434 -202 497 -131 497 -50 c 3
 497 23 386 35 295 40 c 0
 276 40 250 41 223 41 c 1
 176 12 141 -13 141 -98 c 3xe440
 141 -156 223 -202 299 -202 c 3
EndSplineSet
Validated: 1
Substitution2: "smcpLatinlookup subtable" g.sc
EndChar

StartChar: e
Encoding: 101 101 205
Width: 577
Flags: W
HStem: -12 72<217.191 382.852> 279 74<148 427> 490 72<220.722 360.006>
VStem: 54 83<149.653 279>
LayerCount: 2
Fore
SplineSet
54 269 m 3
 54 429 146 562 290 562 c 3
 495 562 512 357 512 318 c 2
 512 279 l 1
 137 279 l 1
 137 279 137 263 137 263 c 2
 137 142 192 60 294 60 c 3
 356 60 408 82 464 157 c 1
 515 108 l 1
 438 15 381 -12 294 -12 c 3
 134 -12 54 118 54 269 c 3
290 490 m 3
 216 490 170 430 148 353 c 1
 427 353 l 1
 418 409 384 490 290 490 c 3
EndSplineSet
Validated: 1
Substitution2: "smcpLatinlookup subtable" e.sc
EndChar

StartChar: f
Encoding: 102 102 206
Width: 393
Flags: W
HStem: 0 21G<103 186> 480 70<32 103 186 348> 755 70<204.343 336.86>
VStem: 103 83<0 480 550 736.939>
LayerCount: 2
Fore
SplineSet
186 646 m 2
 186 550 l 1
 348 550 l 1
 348 480 l 1
 186 480 l 1
 186 0 l 1
 103 0 l 1
 103 480 l 1
 32 480 l 1
 32 550 l 1
 103 550 l 1
 103 646 l 2
 103 749 143 825 258 825 c 7
 337 825 432 761 432 761 c 1
 381 710 l 1
 381 710 310 755 258 755 c 3
 191 755 187 707 186 646 c 2
EndSplineSet
Validated: 1
Substitution2: "smcpLatinlookup subtable" f.sc
EndChar

StartChar: dotlessj
Encoding: 567 567 261
Width: 220
Flags: MW
HStem: -275 21G<-11 -11> 550 119 669 101
VStem: 43 83<-43 550>
LayerCount: 2
Fore
SplineSet
43 550 m 1xd0
 126 550 l 1
 126 -43 l 2
 126 -169 50 -254 -11 -275 c 1
 -36 -196 l 1
 3 -191 43 -122 43 -43 c 2
 43 550 l 1xd0
EndSplineSet
Validated: 1
EndChar

StartChar: uni02CB
Encoding: 715 715 283
Width: 353
Flags: MW
LayerCount: 2
Fore
SplineSet
59 756 m 1
 163 756 l 1
 294 610 l 1
 225 610 l 1
 59 756 l 1
EndSplineSet
Validated: 1
EndChar

StartChar: uni02CA
Encoding: 714 714 284
Width: 353
Flags: MW
LayerCount: 2
Fore
SplineSet
190 756 m 1
 294 756 l 1
 128 610 l 1
 59 610 l 1
 190 756 l 1
EndSplineSet
Validated: 1
EndChar

StartChar: a.sc
Encoding: 57425 57425 285
Width: 588
Flags: MW
HStem: 195 68<209 379>
DStem2: 20 0 104 0 0.371934 0.928259<31.2425 241.264 314.428 557.749> 332 589 301 456 0.371934 -0.928259<76.7706 320.093 393.257 603.279>
LayerCount: 2
Fore
SplineSet
256 589 m 1
 332 589 l 1
 568 0 l 1
 484 0 l 1
 406 195 l 1
 182 195 l 1
 104 0 l 1
 20 0 l 1
 256 589 l 1
294 492 m 1
 294 472 290 462 287 456 c 10
 209 263 l 1
 379 263 l 1
 301 456 l 18
 297 464 294 472 294 492 c 1
EndSplineSet
Validated: 1
EndChar

StartChar: b.sc
Encoding: 57426 57426 286
Width: 527
Flags: W
HStem: 0 68<149 360.262> 263 68<149 333.404> 524 68<149.707 342.009>
VStem: 70 79<68 263 331 519.622> 373 77<365.253 493.293> 401 77<104.241 227.283>
LayerCount: 2
Fore
SplineSet
248 592 m 0xf4
 361 592 450 553 450 426 c 3xf8
 450 364 422 328 385 306 c 1
 463 275 478 208 478 173 c 3
 478 127 478 0 259 0 c 2
 70 0 l 1
 70 579 l 1
 112 585 172 592 248 592 c 0xf4
149 263 m 1
 149 68 l 1
 260 68 l 2
 399 68 401 137 401 175 c 3xf4
 401 198 387 263 271 263 c 2
 149 263 l 1
373 425 m 3xf8
 373 510 320 524 247 524 c 3
 212 524 178 521 149 517 c 1
 149 331 l 1
 208 331 l 2
 296 331 373 341 373 425 c 3xf8
EndSplineSet
Validated: 1
EndChar

StartChar: c.sc
Encoding: 57427 57427 287
Width: 534
Flags: W
HStem: -11 71<230.186 418.951> 524 76<229.106 406.648>
VStem: 49 81<169.45 403.539>
LayerCount: 2
Fore
SplineSet
493 520 m 1
 447 475 l 1
 447 475 404 524 307 524 c 3
 216 524 130 450 130 277 c 3
 130 149 207 60 307 60 c 3
 415 60 463 107 473 119 c 1
 517 75 l 1
 497 51 443 -11 303 -11 c 3
 156 -11 49 112 49 277 c 3
 49 489 175 600 308 600 c 3
 443 600 493 520 493 520 c 1
EndSplineSet
Validated: 1
EndChar

StartChar: d.sc
Encoding: 57428 57428 288
Width: 591
Flags: W
HStem: 0 68<149 363.18> 524 68<150.595 361.407>
VStem: 70 79<68 519.684> 463 79<178.629 416.839>
LayerCount: 2
Fore
SplineSet
463 290 m 3
 463 428 417 524 246 524 c 3
 194 524 161 519 149 516 c 1
 149 68 l 1
 283 68 l 2
 386 68 463 151 463 290 c 3
70 0 m 1
 70 579 l 1
 151 589 190 592 242 592 c 3
 396 592 542 548 542 290 c 3
 542 105 436 0 282 0 c 2
 70 0 l 1
EndSplineSet
Validated: 1
EndChar

StartChar: e.sc
Encoding: 57429 57429 289
Width: 465
Flags: W
HStem: 0 68<149 433> 271 68<149 380> 521 68<149 421>
VStem: 70 79<68 271 339 521>
LayerCount: 2
Fore
SplineSet
433 0 m 1
 70 0 l 1
 70 589 l 1
 334 589 l 2
 388 589 421 592 421 592 c 1
 421 521 l 1
 149 521 l 1
 149 339 l 1
 380 339 l 1
 380 271 l 1
 149 271 l 1
 149 68 l 1
 346 68 l 2
 400 68 433 72 433 72 c 1
 433 0 l 1
EndSplineSet
Validated: 1
EndChar

StartChar: f.sc
Encoding: 57430 57430 290
Width: 447
Flags: MW
HStem: 271 68<149 380> 521 68<149 421>
VStem: 70 79<0 271 339 521>
LayerCount: 2
Fore
SplineSet
149 0 m 1
 70 0 l 1
 70 589 l 1
 334 589 l 2
 388 589 421 592 421 592 c 1
 421 521 l 1
 149 521 l 1
 149 339 l 1
 380 339 l 1
 380 271 l 1
 149 271 l 1
 149 271 149 0 149 0 c 1
EndSplineSet
Validated: 1
EndChar

StartChar: g.sc
Encoding: 57431 57431 291
Width: 622
Flags: W
HStem: -11 72<238.568 441.781> 219 70<332.085 475> 532 68<259.42 437.58>
VStem: 49 82<171.022 399.385> 475 76<89.6885 219>
LayerCount: 2
Fore
SplineSet
551 289 m 1
 551 112 l 2
 551 42 448 -11 351 -11 c 3
 106 -11 49 159 49 281 c 3
 49 519 221 600 346 600 c 3
 476 600 546 510 546 510 c 1
 499 464 l 1
 499 464 444 532 350 532 c 3
 260 532 131 470 131 281 c 3
 131 188 165 61 347 61 c 3
 396 61 475 83 475 119 c 2
 475 219 l 1
 406 219 l 2
 386 219 354 219 331 229 c 1
 331 297 l 1
 352 289 390 289 409 289 c 2
 551 289 l 1
EndSplineSet
Validated: 1
EndChar

StartChar: h.sc
Encoding: 57432 57432 292
Width: 615
Flags: MW
HStem: 270 68<149 466>
VStem: 70 79<0 270 338 589> 466 79<0 270 338 589>
LayerCount: 2
Fore
SplineSet
149 0 m 1
 70 0 l 1
 70 589 l 1
 149 589 l 1
 149 338 l 1
 466 338 l 1
 466 589 l 1
 545 589 l 1
 545 0 l 1
 466 0 l 1
 466 270 l 1
 149 270 l 1
 149 0 l 1
EndSplineSet
Validated: 1
EndChar

StartChar: i.sc
Encoding: 57433 57433 293
Width: 219
Flags: MW
VStem: 70 79<0 589>
LayerCount: 2
Fore
SplineSet
149 0 m 1
 70 0 l 1
 70 589 l 1
 149 589 l 1
 149 0 l 1
EndSplineSet
Validated: 1
EndChar

StartChar: j.sc
Encoding: 57434 57434 294
Width: 243
Flags: W
HStem: -209 71<17.1408 39.6537>
VStem: 94 79<-84.3937 589>
LayerCount: 2
Fore
SplineSet
94 589 m 1
 173 589 l 1
 173 -13 l 2
 173 -136 76 -192 20 -209 c 1
 -9 -138 l 1
 42 -125 94 -89 94 -13 c 2
 94 589 l 1
EndSplineSet
Validated: 1
EndChar

StartChar: k.sc
Encoding: 57435 57435 295
Width: 509
Flags: MW
VStem: 70 79<0 252 337 589>
DStem2: 149 337 220 313 0.646685 0.762757<27.6085 326.079>
LayerCount: 2
Fore
SplineSet
70 589 m 1
 149 589 l 1
 149 337 l 1
 356 589 l 1
 454 589 l 1
 220 313 l 1
 242 311 278 295 303 271 c 0
 340 235 448 52 497 0 c 1
 496 0 l 1
 403 0 l 1
 375 28 278 186 252 216 c 0
 230 241 202 252 170 252 c 0
 162 252 157 252 149 249 c 1
 149 0 l 1
 70 0 l 1
 70 589 l 1
EndSplineSet
Validated: 1
EndChar

StartChar: l.sc
Encoding: 57436 57436 296
Width: 461
Flags: W
HStem: 0 68<149 433>
VStem: 70 79<68 589>
LayerCount: 2
Fore
SplineSet
70 0 m 1
 70 589 l 1
 149 589 l 1
 149 68 l 1
 346 68 l 2
 400 68 433 72 433 72 c 1
 433 0 l 1
 70 0 l 1
EndSplineSet
Validated: 1
EndChar

StartChar: m.sc
Encoding: 57437 57437 297
Width: 705
Flags: MW
VStem: 70 79<0 412> 556 79<0 410>
DStem2: 151 589 151 400 0.374926 -0.927055<162.964 541.117>
LayerCount: 2
Fore
SplineSet
149 0 m 1
 70 0 l 1
 70 589 l 1
 151 589 l 1
 352 92 l 1
 353 87 l 1
 354 92 l 1
 555 589 l 1
 635 589 l 1
 635 0 l 1
 556 0 l 1
 556 397 l 1
 557 410 l 1
 554 397 l 1
 392 0 l 1
 313 0 l 1
 151 400 l 1
 148 412 l 1
 149 400 l 1
 149 0 l 1
EndSplineSet
Validated: 1
EndChar

StartChar: n.sc
Encoding: 57438 57438 298
Width: 600
Flags: MW
VStem: 70 79<0 460> 451 79<131 589>
DStem2: 144 589 154 450 0.557252 -0.830343<109.343 551.931>
LayerCount: 2
Fore
SplineSet
149 0 m 1
 70 0 l 1
 70 589 l 1
 144 589 l 1
 144 589 446 141 446 141 c 1
 452 131 l 1
 451 141 l 1
 451 589 l 1
 530 589 l 1
 530 0 l 1
 456 0 l 1
 456 0 154 450 154 450 c 1
 148 460 l 1
 149 450 l 1
 149 0 l 1
EndSplineSet
Validated: 1
EndChar

StartChar: o.sc
Encoding: 57439 57439 299
Width: 627
Flags: W
HStem: -11 68<225.575 403.924> 532 68<226.894 402.157>
VStem: 49 79<166.945 420.272> 499 79<166.837 419.559>
LayerCount: 2
Fore
SplineSet
316 600 m 3
 438 600 577 531 578 295 c 3
 578 54 444 -11 313 -11 c 3
 191 -11 49 53 49 293 c 3
 49 532 191 600 316 600 c 3
316 532 m 3
 230 532 128 482 128 295 c 3
 128 105 229 57 313 57 c 3
 404 57 498 103 499 293 c 3
 499 479 405 532 316 532 c 3
EndSplineSet
Validated: 1
EndChar

StartChar: p.sc
Encoding: 57440 57440 300
Width: 513
Flags: MW
HStem: 183 72<186.761 343.54> 531 69<174.763 338.678>
VStem: 70 79<0 220 285.986 506.86 569 589> 395 77<309.907 476.637>
LayerCount: 2
Fore
SplineSet
149 0 m 1
 70 0 l 1
 70 589 l 1
 149 589 l 1
 149 569 l 1
 187 589 230 600 279 600 c 3
 393 600 472 521 472 407 c 3
 472 260 398 183 273 183 c 3
 217 183 183 200 149 220 c 1
 149 0 l 1
395 405 m 3
 395 478 343 531 256 531 c 3
 219 531 183 517 149 494 c 1
 149 301 l 1
 185 272 229 255 276 255 c 3
 346 255 395 303 395 405 c 3
EndSplineSet
Validated: 1
EndChar

StartChar: q.sc
Encoding: 57441 57441 301
Width: 627
Flags: W
HStem: -102 65<369.566 524.659> 532 68<226.894 402.157>
VStem: 49 79<165.709 420.272> 499 79<166.032 419.559>
LayerCount: 2
Fore
SplineSet
316 532 m 3
 230 532 128 482 128 295 c 3
 128 105 229 57 313 57 c 3
 404 57 498 103 499 293 c 3
 499 479 405 532 316 532 c 3
316 600 m 3
 438 600 577 531 578 295 c 3
 578 83 475 7 361 -8 c 1
 376 -22 399 -37 442 -37 c 3
 465 -37 493 -32 520 -24 c 1
 540 -89 l 1
 518 -98 469 -102 444 -102 c 3
 336 -102 285 -41 271 -8 c 1
 161 6 49 80 49 293 c 3
 49 532 191 600 316 600 c 3
EndSplineSet
Validated: 1
EndChar

StartChar: r.sc
Encoding: 57442 57442 302
Width: 542
Flags: MW
HStem: 246 68<149 243.002> 529 71<172.93 345.985>
VStem: 70 79<0 246 314 506.678 568 589> 383 77<358.105 491.895>
LayerCount: 2
Fore
SplineSet
149 0 m 1
 70 0 l 1
 70 589 l 1
 149 589 l 1
 149 568 l 1
 193 591 231 599 283 600 c 3
 388 600 460 536 460 432 c 3
 460 312 387 265 316 251 c 1
 389 197 454 59 534 2 c 1
 534 0 l 1
 438 0 l 1
 366 53 290 222 203 246 c 1
 180 246 173 246 149 246 c 1
 149 0 l 1
266 314 m 2
 317 315 382 336 383 431 c 3
 383 490 340 529 271 529 c 3
 225 529 188 518 149 495 c 1
 149 314 l 1
 266 314 l 2
EndSplineSet
Validated: 1
EndChar

StartChar: s.sc
Encoding: 57443 57443 303
Width: 514
Flags: W
HStem: -11 72<173.802 358.433> 528 72<179.943 345.354>
VStem: 69 77<388.892 494.573> 396 77<96.1094 212.898>
LayerCount: 2
Fore
SplineSet
45 104 m 1
 100 153 l 1
 143 89 191 61 268 61 c 3
 339 61 396 86 396 159 c 3
 396 227 330 246 254 267 c 0
 157 295 69 332 69 437 c 3
 69 577 194 600 253 600 c 3
 334 600 388 575 432 527 c 1
 378 481 l 1
 346 512 314 528 253 528 c 3
 216 528 146 511 146 437 c 3
 146 381 205 362 276 342 c 0
 373 314 473 274 473 159 c 3
 473 44 375 -11 267 -11 c 3
 166 -11 98 26 45 104 c 1
EndSplineSet
Validated: 1
EndChar

StartChar: t.sc
Encoding: 57444 57444 304
Width: 462
Flags: MW
HStem: 521 68<6 190 269 456>
VStem: 190 79<0 521>
LayerCount: 2
Fore
SplineSet
6 521 m 1
 6 589 l 1
 456 589 l 1
 456 521 l 1
 269 521 l 1
 269 0 l 1
 190 0 l 1
 190 521 l 1
 6 521 l 1
EndSplineSet
Validated: 1
EndChar

StartChar: u.sc
Encoding: 57445 57445 305
Width: 568
Flags: W
HStem: -9 69<193.972 372.333>
VStem: 70 79<107.82 589> 419 79<107.113 589>
LayerCount: 2
Fore
SplineSet
498 183 m 2
 497 11 354 -9 284 -9 c 3
 213 -9 71 13 70 183 c 2
 70 589 l 1
 149 589 l 1
 149 184 l 2
 149 66 237 60 284 60 c 3
 331 60 418 69 419 183 c 2
 419 589 l 1
 498 589 l 1
 498 183 l 2
EndSplineSet
Validated: 1
EndChar

StartChar: v.sc
Encoding: 57446 57446 306
Width: 568
Flags: MW
DStem2: 102 589 18 589 0.360994 -0.932568<0 510.536>
LayerCount: 2
Fore
SplineSet
322 0 m 1
 246 0 l 1
 18 589 l 1
 102 589 l 1
 282 122 l 1
 284 112 l 1
 287 122 l 1
 466 589 l 1
 550 589 l 1
 322 0 l 1
EndSplineSet
Validated: 1
EndChar

StartChar: w.sc
Encoding: 57447 57447 307
Width: 811
Flags: MW
DStem2: 102 589 21 589 0.289286 -0.957243<0 467.03> 447 589 407 447 0.296937 -0.954897<109.755 467.054>
LayerCount: 2
Fore
SplineSet
265 0 m 1
 199 0 l 1
 21 589 l 1
 102 589 l 1
 231 141 l 1
 233 132 l 1
 234 141 l 1
 363 589 l 1
 447 589 l 1
 576 140 l 1
 577 131 l 1
 579 140 l 1
 708 589 l 1
 790 589 l 1
 612 0 l 1
 546 0 l 1
 407 447 l 1
 405 461 l 1
 402 447 l 1
 265 0 l 1
EndSplineSet
Validated: 1
EndChar

StartChar: x.sc
Encoding: 57448 57448 308
Width: 544
Flags: MW
DStem2: 119 589 24 589 0.562771 -0.826613<0 267.959 391.951 658.52> 24 0 121 0 0.56181 0.827266<54.4956 320.5 444.59 711.984>
LayerCount: 2
Fore
SplineSet
424 589 m 1
 520 589 l 1
 316 293 l 1
 520 0 l 1
 424 0 l 1
 272 219 l 1
 121 0 l 1
 24 0 l 1
 227 293 l 1
 24 589 l 1
 119 589 l 1
 272 369 l 1
 424 589 l 1
EndSplineSet
Validated: 1
EndChar

StartChar: y.sc
Encoding: 57449 57449 309
Width: 510
Flags: MW
VStem: 217 78<0 286>
DStem2: 100 589 7 589 0.570905 -0.821016<0 274.361> 257 364 295 286 0.565951 0.824439<0 274.353>
LayerCount: 2
Fore
SplineSet
414 589 m 1
 503 589 l 1
 295 286 l 1
 295 0 l 1
 217 0 l 1
 217 287 l 1
 7 589 l 1
 100 589 l 1
 257 364 l 1
 414 589 l 1
EndSplineSet
Validated: 1
EndChar

StartChar: z.sc
Encoding: 57450 57450 310
Width: 508
Flags: W
HStem: 0 74<137 465.249> 515 74<49 353>
DStem2: 41 74 137 74 0.575813 0.817581<55.2781 540.207>
LayerCount: 2
Fore
SplineSet
467 86 m 1
 467 11 l 1
 444 0 369 0 369 0 c 1
 41 0 l 1
 41 74 l 1
 353 515 l 1
 49 515 l 1
 49 589 l 1
 449 589 l 1
 449 517 l 1
 137 74 l 1
 370 74 l 1
 370 74 430 74 467 86 c 1
EndSplineSet
Validated: 1
EndChar

StartChar: thorn.sc
Encoding: 57485 57485 336
Width: 521
Flags: MW
HStem: 102 72<186.761 343.54> 449 69<173.003 340.031>
VStem: 70 79<0 138 204.986 425.753 487 589> 395 77<228.703 394.979>
LayerCount: 2
Fore
SplineSet
395 324 m 3
 395 397 343 449 256 449 c 3
 219 449 183 436 149 413 c 1
 149 220 l 1
 185 191 229 174 276 174 c 3
 346 174 395 223 395 324 c 3
149 0 m 1
 70 0 l 1
 70 589 l 1
 149 589 l 1
 149 487 l 1
 187 506 230 518 279 518 c 3
 393 518 472 439 472 325 c 3
 472 178 398 102 273 102 c 3
 217 102 183 118 149 138 c 1
 149 0 l 1
EndSplineSet
Validated: 1
EndChar

StartChar: eth.sc
Encoding: 57472 57472 337
Width: 643
Flags: W
HStem: 0 68<201 415.18> 280 54<57 122 201 345> 524 68<202.595 413.407>
VStem: 122 79<68 280 334 519.684> 515 79<178.629 416.839>
LayerCount: 2
Fore
SplineSet
515 290 m 3
 515 428 469 524 298 524 c 3
 246 524 213 519 201 516 c 1
 201 334 l 1
 345 334 l 1
 345 280 l 1
 201 280 l 1
 201 68 l 1
 335 68 l 2
 438 68 515 151 515 290 c 3
122 334 m 1
 122 579 l 1
 203 589 242 592 294 592 c 3
 448 592 594 548 594 290 c 3
 594 105 488 0 334 0 c 2
 122 0 l 1
 122 280 l 1
 57 280 l 1
 57 334 l 1
 122 334 l 1
EndSplineSet
Validated: 1
EndChar

StartChar: oslash.sc
Encoding: 57479 57479 352
Width: 627
Flags: W
HStem: -11 68<228.58 403.924> 532 68<226.894 397.714>
VStem: 49 79<164.569 420.272> 499 79<166.837 423.175>
DStem2: 98 -27 169 -27 0.487028 0.873386<34.579 84.0558 164.73 608.026 687.033 735.07>
LayerCount: 2
Fore
SplineSet
169 -27 m 1
 98 -27 l 1
 139 47 l 1
 86 93 49 170 49 293 c 3
 49 532 191 600 316 600 c 3
 355 600 396 593 434 575 c 1
 456 615 l 1
 527 615 l 1
 486 542 l 1
 540 495 577 418 578 295 c 3
 578 54 444 -11 313 -11 c 3
 273 -11 230 -4 192 14 c 1
 169 -27 l 1
316 532 m 3
 230 532 128 482 128 295 c 3
 128 210 148 153 178 117 c 1
 399 513 l 1
 373 527 344 532 316 532 c 3
448 474 m 1
 227 77 l 1
 255 62 285 57 313 57 c 3
 404 57 498 103 499 293 c 3
 499 379 479 437 448 474 c 1
EndSplineSet
Validated: 1
EndChar

StartChar: oe.sc
Encoding: 57528 57528 359
Width: 795
Flags: W
HStem: -11 68<231.417 470.711> 0 68<476 763> 271 68<476 709> 521 68<476 751> 532 68<232.213 471.484>
VStem: 49 79<175.576 418.528> 397 79<68.0001 271 339 520.551>
LayerCount: 2
Fore
SplineSet
397 76 m 1xae
 397 512 l 1
 371 526 343 532 316 532 c 3
 232 532 128 474 128 295 c 3
 128 113 233 57 314 57 c 3
 342 57 370 63 397 76 c 1xae
763 0 m 1x76
 397 0 l 1x76
 397 0 343 -11 313 -11 c 3
 191 -11 49 53 49 293 c 3
 49 532 191 600 316 600 c 3xae
 343 600 370 597 397 589 c 1
 664 589 l 2
 718 589 751 592 751 592 c 1
 751 521 l 1
 476 521 l 1
 476 339 l 1
 709 339 l 1
 709 271 l 1
 476 271 l 1
 476 68 l 1
 675 68 l 2
 729 68 763 72 763 72 c 1
 763 0 l 1x76
EndSplineSet
Validated: 1
EndChar

StartChar: ae.sc
Encoding: 57462 57462 375
Width: 812
Flags: W
HStem: 0 68<493 780> 200 58<263 414> 271 68<493 727> 521 68<493 768>
VStem: 414 79<68 200 258 271 339 508>
DStem2: 20 0 107 0 0.514067 0.85775<44.7239 278.476 346.218 638.279>
LayerCount: 2
Fore
SplineSet
780 0 m 1
 414 0 l 1
 414 200 l 1
 228 200 l 1
 107 0 l 1
 20 0 l 1
 373 589 l 1
 681 589 l 2
 735 589 768 592 768 592 c 1
 768 521 l 1
 493 521 l 1
 493 339 l 1
 727 339 l 1
 727 271 l 1
 493 271 l 1
 493 68 l 1
 693 68 l 2
 747 68 780 72 780 72 c 1
 780 0 l 1
414 508 m 1
 263 258 l 1
 414 258 l 1
 414 508 l 1
EndSplineSet
Validated: 1
EndChar

StartChar: uni0411
Encoding: 1041 1041 382
Width: 635
Flags: W
HStem: 0 76<172 414.084> 371 76<172 420.315> 690 80<172 480>
VStem: 84 88<76 371 447 690> 490 86<144.843 306.615>
LayerCount: 2
Fore
SplineSet
325 447 m 2
 566 447 576 293 576 237 c 3
 576 174 566 0 312 0 c 2
 84 0 l 1
 84 770 l 1
 481 770 l 1
 480 690 l 1
 172 690 l 1
 172 447 l 1
 325 447 l 2
172 371 m 1
 172 76 l 1
 312 76 l 2
 477 76 490 182 490 237 c 3
 490 281 462 371 325 371 c 2
 172 371 l 1
EndSplineSet
Validated: 1
EndChar

StartChar: uni0413
Encoding: 1043 1043 384
Width: 613
Flags: W
HStem: 0 21G<84 168> 691 79<168 606>
VStem: 84 84<0 691>
LayerCount: 2
Fore
SplineSet
84 770 m 25
 606 770 l 25
 606 691 l 25
 168 691 l 29
 168 0 l 29
 84 0 l 25
 84 770 l 25
EndSplineSet
Validated: 1
EndChar

StartChar: uni0414
Encoding: 1044 1044 385
Width: 770
Flags: W
HStem: -140 216<37 110.362 668 733> 0 76<113 122.278 207 580> 694 76<314 580>
VStem: 37 76<-140 0> 226 88<292.338 694> 580 88<76 694> 657 76<-140 0>
LayerCount: 2
Back
SplineSet
37 76 m 1
 733 76 l 1
 733 -140 l 1
 657 -140 l 1
 657 0 l 1
 113 0 l 1
 113 -140 l 1
 37 -140 l 1
 37 76 l 1
668 770 m 1
 668 20 l 1
 580 20 l 1
 580 694 l 1
 314 694 l 1
 314 533 l 2
 314 234.902593231 232 70.479338843 134 0 c 1
 102 76 l 1
 193 151.699386502 226 321.667466881 226 533 c 2
 226 770 l 1
 226 770 520.666666667 770 668 770 c 1
EndSplineSet
Fore
SplineSet
134 0 m 1x7a
 113 0 l 1x7a
 113 -140 l 1
 37 -140 l 1
 37 76 l 1
 102 76 l 1
 193 152 226 322 226 533 c 2
 226 770 l 1
 226 770 521 770 668 770 c 1
 668 76 l 1xbc
 733 76 l 1
 733 -140 l 1
 657 -140 l 1xba
 657 0 l 1
 134 0 l 1x7a
580 76 m 1x7c
 580 694 l 1
 314 694 l 1
 314 533 l 2
 314 313 270 166 207 76 c 1
 580 76 l 1x7c
EndSplineSet
Validated: 1
EndChar

StartChar: uni0416
Encoding: 1046 1046 387
Width: 968
VWidth: 0
Flags: W
HStem: 0 21G<14 135 440 528 833 954>
VStem: 440 88<0 341.342 429 770>
DStem2: 174 770 65 770 0.616662 -0.787228<0 390.085> 528 429 621 410 0.616662 0.787228<42.3922 432.477>
LayerCount: 2
Fore
SplineSet
440 770 m 1
 528 770 l 1
 528 429 l 1
 794 770 l 1
 903 770 l 1
 621 410 l 1
 647 407 691 386 721 354 c 0
 765 307 895 68 954 0 c 1
 953 0 l 1
 850 0 l 1
 816 36 696 255 664 294 c 0
 637 327 604 342 566 342 c 3
 554 342 541 341 528 338 c 1
 528 0 l 1
 440 0 l 1
 440 338 l 1
 427 341 414 342 402 342 c 3
 364 342 331 327 304 294 c 0
 272 255 152 36 118 0 c 1
 15 0 l 1
 14 0 l 1
 73 68 203 307 247 354 c 0
 277 386 321 407 347 410 c 1
 65 770 l 1
 174 770 l 1
 440 429 l 1
 440 770 l 1
EndSplineSet
Validated: 1
EndChar

StartChar: uni0417
Encoding: 1047 1047 388
Width: 642
Flags: W
HStem: 0 76<202.505 426.436> 366 71<247 388.003> 700 75<200.156 409.405>
VStem: 457 85<492.647 651.71> 490 86<133.874 288.002>
LayerCount: 2
Fore
SplineSet
247 366 m 1xe8
 247 437 l 1
 359 437 457 451 457 570 c 3
 457 681 390 700 297 700 c 3
 180 700 132 623 132 623 c 1
 76 670 l 1
 76 670 136 775 298 775 c 3
 434 775 542 726 542 568 c 3xf0
 542 487 509 439 464 410 c 1
 558 367 576 276 576 227 c 3
 576 167 576 0 312 0 c 3
 144 0 80 81 55 113 c 1
 110 168 l 1
 122 152 179 76 312 76 c 3
 487 76 490 173 490 227 c 3
 490 264 463 366 247 366 c 1xe8
EndSplineSet
Validated: 1
EndChar

StartChar: uni0418
Encoding: 1048 1048 389
Width: 722
Flags: W
HStem: 0 21G<84 183.27 550 638>
VStem: 84 88<150 770> 550 88<0 622>
LayerCount: 2
Fore
SplineSet
550 0 m 1
 550 608 l 1
 551 622 l 1
 544 608 l 1
 171 0 l 1
 84 0 l 1
 84 770 l 1
 172 770 l 1
 172 164 l 1
 171 150 l 1
 178 164 l 1
 178 164 551 770 551 770 c 1
 638 770 l 1
 638 0 l 1
 550 0 l 1
EndSplineSet
Validated: 1
EndChar

StartChar: uni041B
Encoding: 1051 1051 392
Width: 699
Flags: W
HStem: 0 21G<527 615> 694 76<201 527>
VStem: 113 88<116.971 694> 527 88<0 694>
LayerCount: 2
Fore
SplineSet
615 770 m 1
 615 0 l 1
 527 0 l 1
 527 694 l 1
 201 694 l 1
 201 203 l 2
 201 42 89 -17 21 -39 c 1
 -11 40 l 1
 50 57 113 104 113 203 c 2
 113 770 l 1
 113 770 448 770 615 770 c 1
EndSplineSet
Validated: 1
EndChar

StartChar: uni041F
Encoding: 1055 1055 396
Width: 722
Flags: W
HStem: 0 21G<84 172 550 638> 694 76<172 550>
VStem: 84 88<0 694> 550 88<0 694>
LayerCount: 2
Fore
SplineSet
172 0 m 1
 84 0 l 1
 84 770 l 1
 84 770 638 770 638 770 c 1
 638 0 l 1
 550 0 l 1
 550 694 l 1
 172 694 l 1
 172 0 l 1
EndSplineSet
Validated: 1
EndChar

StartChar: uni0423
Encoding: 1059 1059 400
Width: 513
Flags: W
HStem: 0 83<24 74.9303>
DStem2: 31 770 -74 770 0.383084 -0.923713<0 463.764> 135 163 212 118 0.399343 0.916802<-65.1069 54.6256 195.774 659.13>
LayerCount: 2
Fore
SplineSet
212 118 m 2
 182 49 102 3 24 0 c 1
 -4 83 l 1
 59 88 113 114 135 163 c 2
 157 213 l 1
 -74 770 l 1
 31 770 l 1
 212 343 l 1
 392 770 l 1
 496 770 l 1
 212 118 l 2
EndSplineSet
Validated: 1
EndChar

StartChar: uni0424
Encoding: 1060 1060 401
Width: 755
Flags: W
HStem: 0 21G<333 421> 117 77<257.583 333 421 499.48> 577 76<257.036 333 421 502.487>
VStem: 59 88<295.775 476.723> 333 88<0 118.91 194 577 651.077 770> 608 88<291.95 476.124>
LayerCount: 2
Back
SplineSet
421 0 m 1
 333 0 l 1
 333 770 l 1
 421 770 l 1
 421 0 l 1
380 655 m 3
 527 655 695 594 696 386 c 3
 696 173 535 115 377 115 c 3
 230 115 59 172 59 384 c 3
 59 596 230 655 380 655 c 3
380 580 m 3
 276 580 147 533 147 386 c 3
 147 237 276 191 377 191 c 3
 487 191 607 236 608 384 c 3
 608 531 487 580 380 580 c 3
EndSplineSet
Fore
SplineSet
421 0 m 1
 333 0 l 1
 333 117 l 1
 198 128 59 193 59 384 c 3
 59 574 196 641 333 653 c 1
 333 770 l 1
 421 770 l 1
 421 653 l 1
 557 642 695 575 696 386 c 3
 696 193 564 128 421 117 c 1
 421 0 l 1
421 194 m 1
 517 205 607 256 608 384 c 3
 608 512 516 566 421 578 c 1
 421 194 l 1
333 577 m 1
 241 564 147 511 147 386 c 3
 147 258 242 206 333 194 c 1
 333 577 l 1
EndSplineSet
Validated: 1
EndChar

StartChar: uni0426
Encoding: 1062 1062 403
Width: 753
Flags: W
HStem: 0 76<172 550>
VStem: 84 88<76 770> 550 88<76 770> 637 76<-140 0>
LayerCount: 2
Fore
SplineSet
172 770 m 1xd0
 172 76 l 1
 550 76 l 1
 550 770 l 1
 638 770 l 1
 638 76 l 1xe0
 713 76 l 1
 713 -140 l 1
 637 -140 l 1
 637 0 l 1
 84 0 l 1
 84 770 l 1
 172 770 l 1xd0
EndSplineSet
Validated: 1
EndChar

StartChar: uni0427
Encoding: 1063 1063 404
Width: 637
VWidth: 0
Flags: W
HStem: 0 21G<465 553> 240 80<215.943 395.158>
VStem: 49 85<412.264 770> 465 88<0 292 368.731 770>
LayerCount: 2
Fore
SplineSet
49 770 m 1
 134 770 l 1
 134 770 134 532 134 532 c 2
 134 389 199 320 294 320 c 3
 358 320 416 344 465 385 c 1
 465 385 465 770 465 770 c 1
 553 770 l 1
 553 0 l 1
 465 0 l 1
 465 292 l 1
 421 264 370 240 298 240 c 3
 142 240 49 340 49 532 c 2
 49 532 49 770 49 770 c 1
EndSplineSet
Validated: 1
EndChar

StartChar: uni0428
Encoding: 1064 1064 405
Width: 848
Flags: W
HStem: 0 76<172 380 468 676>
VStem: 84 88<76 770> 380 88<76 770> 676 87<76 770>
LayerCount: 2
Fore
SplineSet
172 770 m 1
 172 76 l 1
 380 76 l 1
 380 770 l 1
 468 770 l 1
 468 76 l 1
 676 76 l 1
 676 770 l 1
 764 770 l 1
 763 0 l 1
 84 0 l 1
 84 770 l 1
 172 770 l 1
EndSplineSet
Validated: 1
EndChar

StartChar: uni0429
Encoding: 1065 1065 406
Width: 878
Flags: W
HStem: 0 76<172 380 468 676>
VStem: 84 88<76 770> 380 88<76 770> 676 87<76 770> 762 76<-140 0>
LayerCount: 2
Fore
SplineSet
172 770 m 1xe8
 172 76 l 1
 380 76 l 1
 380 770 l 1
 468 770 l 1
 468 76 l 1
 676 76 l 1
 676 770 l 1
 764 770 l 1
 763 76 l 1xf0
 838 76 l 1
 838 -140 l 1
 762 -140 l 1
 762 0 l 1
 84 0 l 1
 84 770 l 1
 172 770 l 1xe8
EndSplineSet
Validated: 1
EndChar

StartChar: uni042A
Encoding: 1066 1066 407
Width: 715
Flags: W
HStem: 0 76<252 494.084> 371 76<252 500.315> 690 80<0 164>
VStem: 164 88<76 371 447 690> 570 86<144.843 306.615>
LayerCount: 2
Fore
SplineSet
405 447 m 2
 646 447 656 293 656 237 c 3
 656 174 646 0 392 0 c 2
 164 0 l 1
 164 690 l 1
 0 690 l 1
 0 770 l 1
 252 770 l 1
 252 447 l 1
 405 447 l 2
252 371 m 1
 252 76 l 1
 392 76 l 2
 557 76 570 182 570 237 c 3
 570 281 542 371 405 371 c 2
 252 371 l 1
EndSplineSet
Validated: 1
EndChar

StartChar: uni042B
Encoding: 1067 1067 408
Width: 808
Flags: W
HStem: 0 76<172 414.084> 371 76<172 413.582>
VStem: 84 88<76 371 447 770> 490 86<144.233 302.776> 636 88<0 770>
LayerCount: 2
Fore
SplineSet
325 447 m 2
 566 447 576 293 576 237 c 3
 576 174 566 0 312 0 c 2
 84 0 l 1
 84 770 l 1
 172 770 l 1
 172 447 l 1
 325 447 l 2
172 371 m 1
 172 76 l 1
 312 76 l 2
 477 76 490 179 490 237 c 3
 490 273 462 371 325 371 c 2
 172 371 l 1
724 0 m 1
 636 0 l 1
 636 770 l 1
 724 770 l 1
 724 0 l 1
EndSplineSet
Validated: 1
EndChar

StartChar: uni042C
Encoding: 1068 1068 409
Width: 635
Flags: W
HStem: 0 76<172 414.084> 371 76<172 413.582>
VStem: 84 88<76 371 447 770> 490 86<144.233 302.776>
LayerCount: 2
Fore
SplineSet
325 447 m 2
 566 447 576 293 576 237 c 3
 576 174 566 0 312 0 c 2
 84 0 l 1
 84 770 l 1
 172 770 l 1
 172 447 l 1
 325 447 l 2
172 371 m 1
 172 76 l 1
 312 76 l 2
 477 76 490 179 490 237 c 3
 490 273 462 371 325 371 c 2
 172 371 l 1
EndSplineSet
Validated: 1
EndChar

StartChar: uni042D
Encoding: 1069 1069 410
Width: 642
Flags: W
HStem: -15 79<163.573 349.46> 351 76<212 490> 701 84<174.156 353.002>
VStem: 493 90<238.964 351 427 515.349>
LayerCount: 2
Back
SplineSet
497 427 m 1
 497 351 l 1
 212 351 l 1
 212 427 l 1
 497 427 l 1
49 680 m 1
 49 680 109 785 271 785 c 3
 431 785 583 640 583 363 c 3
 583 147 454 -15 277 -15 c 3
 109 -15 45 66 20 98 c 1
 75 153 l 1
 87 137 142 64 272 64 c 3
 392 64 493 195 493 363 c 3
 493 589 382 701 272 701 c 3
 155 701 107 624 107 624 c 1
 49 680 l 1
EndSplineSet
Fore
SplineSet
49 680 m 1
 49 680 109 785 271 785 c 3
 431 785 583 640 583 363 c 3
 583 147 454 -15 277 -15 c 3
 109 -15 45 66 20 98 c 1
 75 153 l 1
 87 137 142 64 272 64 c 3
 389 64 488 189 493 351 c 1
 212 351 l 1
 212 427 l 1
 490 427 l 1
 471 610 371 701 272 701 c 3
 155 701 107 624 107 624 c 1
 49 680 l 1
EndSplineSet
EndChar

StartChar: uni042E
Encoding: 1070 1070 411
Width: 871
Flags: W
HStem: -15 76<475.006 615.299> 0 21G<84 172> 346 75<172 280> 710 75<476.771 615.764>
VStem: 84 88<0 346 421 770> 280 87<217.601 346 421 549.634> 723 88<212.141 555.952>
LayerCount: 2
Back
SplineSet
172 0 m 1
 84 0 l 1
 84 770 l 1
 172 770 l 1
 172 421 l 1
 316 421 l 1
 316 346 l 1
 172 346 l 1
 172 0 l 1
545 785 m 3
 668.740506329 785 811 695.001234396 811 386 c 3
 811 71 675.235109718 -15 542 -15 c 3
 420.424528302 -15 279 70 279 384 c 3
 279 697 420.700934579 785 545 785 c 3
545 710 m 3
 465.549356223 710 367 631 367 386 c 3
 367 137 465.152173913 61 542 61 c 3
 628.19047619 61 723 135.998621649 723 384 c 3
 723 628 628.535087719 710 545 710 c 3
EndSplineSet
Fore
SplineSet
545 710 m 3xbe
 466 710 367 631 367 386 c 3
 367 137 465 61 542 61 c 3
 628 61 723 136 723 384 c 3
 723 628 629 710 545 710 c 3xbe
545 785 m 3
 669 785 811 695 811 386 c 3
 811 71 675 -15 542 -15 c 3xbe
 425 -15 291 63 280 346 c 1
 172 346 l 1
 172 0 l 1
 84 0 l 1x7e
 84 770 l 1
 172 770 l 1
 172 421 l 1
 280 421 l 1
 291 704 426 785 545 785 c 3
EndSplineSet
Validated: 1
EndChar

StartChar: uni042F
Encoding: 1071 1071 412
Width: 653
Flags: W
HStem: 0 21G<10 160.5 481 569> 322 75<361.262 481> 706 79<245.759 431.854>
VStem: 99 86<467.86 646.708> 481 88<0 322 397 669.916 739 770>
LayerCount: 2
Fore
SplineSet
481 0 m 1
 481 322 l 1
 400 322 l 1
 295 290 204 69 117 0 c 1
 10 0 l 1
 10 2 l 1
 106 76 185 258 273 329 c 1
 187 347 99 408 99 565 c 0
 99 701 186 785 312 785 c 0
 375 784 428 772 481 739 c 1
 481 770 l 1
 569 770 l 1
 569 0 l 1
 481 0 l 1
333 397 m 2
 481 397 l 1
 481 657 l 1
 432 690 384 706 326 706 c 0
 239 706 185 650 185 565 c 0
 186 429 269 398 333 397 c 2
EndSplineSet
Validated: 1
EndChar

StartChar: uni0431
Encoding: 1073 1073 420
Width: 586
Flags: W
HStem: -12 68<257.083 398.228> 493 69<257.236 395.379> 755 70<265.081 481.16>
VStem: 83 84<166.909 387.778 498 651.985> 487 84<160.803 383.723>
LayerCount: 2
Back
SplineSet
167 535 m 2
 167 275 l 1
 83 275 l 1
 83 535 l 2
 83 721 223 825 387 825 c 3
 455 825 495 800 510 785 c 1
 510 715 l 1
 495 730 445 755 387 755 c 3
 196 755 167 654 167 535 c 2
83 275 m 3
 83 455 195 562 328 562 c 3
 460 562 571 454 571 275 c 3
 571 93 460 -12 328 -12 c 3
 195 -12 83 88 83 275 c 3
487 275 m 3
 487 400 416 493 328 493 c 3
 239 493 167 405 167 275 c 3
 167 147 239 56 328 56 c 3
 416 56 487 144 487 275 c 3
EndSplineSet
Fore
SplineSet
487 275 m 3
 487 400 416 493 328 493 c 3
 239 493 167 405 167 275 c 3
 167 147 239 56 328 56 c 3
 416 56 487 144 487 275 c 3
83 275 m 3
 83 376 83 535 83 535 c 2
 83 721 223 825 387 825 c 3
 455 825 495 800 510 785 c 1
 510 715 l 1
 495 730 445 755 387 755 c 3
 196 755 167 654 167 535 c 2
 167 498 l 1
 210 540 267 562 328 562 c 3
 460 562 571 454 571 275 c 3
 571 93 460 -12 328 -12 c 3
 195 -12 83 93 83 275 c 3
EndSplineSet
Validated: 1
EndChar

StartChar: uni0432
Encoding: 1074 1074 421
Width: 473
Flags: W
HStem: 0 68<144 336.247> 247 70<144 313.094> 493 69<145.771 317.391>
VStem: 60 84<68 247 317 485.554> 348 84<348.651 461.865> 373 84<100.321 209.755>
LayerCount: 2
Fore
SplineSet
235 562 m 3xf4
 345 562 432 525 432 406 c 3xf8
 432 346 408 311 375 290 c 1
 443 259 457 194 457 160 c 3
 457 117 456 0 245 0 c 2
 60 0 l 1
 60 549 l 1
 101 555 160 562 235 562 c 3xf4
144 247 m 1
 144 68 l 1
 245 68 l 2
 361 68 373 123 373 160 c 3xf4
 373 185 349 247 255 247 c 2
 144 247 l 1
348 406 m 3xf8
 348 474 291 493 234 493 c 3
 191 493 179 488 144 481 c 1
 144 317 l 1
 234 317 l 2
 290 317 348 340 348 406 c 3xf8
EndSplineSet
Validated: 1
EndChar

StartChar: uni0433
Encoding: 1075 1075 422
Width: 470
Flags: W
HStem: 0 21G<60 144> 481 69<144 463>
VStem: 60 84<0 481>
LayerCount: 2
Fore
SplineSet
60 550 m 25
 463 550 l 25
 463 481 l 25
 144 481 l 25
 144 0 l 25
 60 0 l 25
 60 550 l 25
EndSplineSet
Validated: 1
EndChar

StartChar: uni0434
Encoding: 1076 1076 423
Width: 577
Flags: W
HStem: -100 168<26 85.6382 517 553> 0 68<162 433> 481 69<234 433>
VStem: 26 68<-100 0> 150 84<189.625 481> 433 84<68 481> 485 68<-100 0>
LayerCount: 2
Back
SplineSet
26 68 m 1
 553 68 l 1
 553 -100 l 1
 485 -100 l 1
 485 0 l 1
 94 0 l 1
 94 -100 l 1
 26 -100 l 1
 26 68 l 1
517 550 m 1
 517 14 l 1
 433 14 l 1
 433 481 l 1
 234 481 l 1
 234 381 l 2
 234 168 171.46875 50 96 0 c 1
 67 68 l 1
 128.306818182 119.688073394 150 236.464831804 150 381 c 2
 150 550 l 1
 517 550 l 1
EndSplineSet
Fore
SplineSet
96 0 m 1x7a
 94 0 l 1x7a
 94 -100 l 1
 26 -100 l 1
 26 68 l 1
 67 68 l 1
 128 120 150 236 150 381 c 2
 150 550 l 1
 517 550 l 1
 517 68 l 1xbc
 553 68 l 1
 553 -100 l 1
 485 -100 l 1xba
 485 0 l 1
 96 0 l 1x7a
433 68 m 1x7c
 433 481 l 1
 234 481 l 1
 234 381 l 2
 234 235 205 133 162 68 c 1
 433 68 l 1x7c
EndSplineSet
Validated: 1
EndChar

StartChar: uni0436
Encoding: 1078 1078 424
Width: 772
VWidth: 0
Flags: W
HStem: 0 21G<15 124 344 428 648 757>
VStem: 344 84<0 243.895 338 550>
DStem2: 178 550 76 550 0.618257 -0.785976<0 241.018> 428 338 508 311 0.618257 0.785976<28.2392 269.258>
LayerCount: 2
Fore
SplineSet
344 0 m 1
 344 241 l 1
 335 243 326 244 317 244 c 3
 290 244 260 231 247 210 c 2
 247 210 136 23 112 0 c 1
 15 0 l 1
 57 49 181 253 181 253 c 2
 205 289 226 301 264 311 c 1
 76 550 l 1
 178 550 l 1
 344 338 l 1
 344 550 l 1
 428 550 l 1
 428 338 l 1
 594 550 l 1
 696 550 l 1
 508 311 l 1
 546 301 567 289 591 253 c 2
 591 253 715 49 757 0 c 1
 660 0 l 1
 636 23 525 210 525 210 c 2
 512 231 482 244 455 244 c 3
 446 244 437 243 428 241 c 1
 428 0 l 1
 344 0 l 1
EndSplineSet
Validated: 1
EndChar

StartChar: uni0437
Encoding: 1079 1079 425
Width: 479
Flags: W
HStem: -12 78<140.266 310.334> 246 79<172 281.228> 493 69<143.319 292.368>
VStem: 317 84<352.682 467.829> 343 84<96.2969 196.982>
LayerCount: 2
Fore
SplineSet
172 246 m 1xe8
 172 325 l 1
 288 325 317 354 317 410 c 3
 317 471 277 493 220 493 c 3
 141 493 109 440 109 440 c 1
 56 484 l 1
 56 484 101 562 221 562 c 3
 322 562 401 526 401 409 c 3xf0
 401 349 377 313 344 292 c 1
 414 260 427 192 427 156 c 3
 427 92 407 -12 231 -12 c 3
 107 -12 60 48 41 72 c 1
 95 126 l 1
 103 115 141 66 231 66 c 3
 321 66 343 114 343 156 c 3
 343 180 305 246 172 246 c 1xe8
EndSplineSet
Validated: 1
EndChar

StartChar: uni0438
Encoding: 1080 1080 426
Width: 558
Flags: W
HStem: 0 21G<60 173.247 414 498>
VStem: 60 84<135 550> 414 84<0 415>
LayerCount: 2
Fore
SplineSet
414 0 m 1
 414 405 l 1
 414 415 l 1
 409 405 l 1
 161 0 l 1
 60 0 l 1
 60 550 l 1
 144 550 l 1
 144 145 l 1
 143 135 l 1
 148 145 l 1
 396 550 l 1
 498 550 l 1
 498 0 l 1
 414 0 l 1
EndSplineSet
Validated: 1
EndChar

StartChar: uni043A
Encoding: 1082 1082 428
Width: 484
Flags: W
HStem: 0 21G<60 144 364 473>
VStem: 60 84<0 243.895 338 550>
DStem2: 144 338 224 311 0.618257 0.785976<28.2392 269.258> 307 253 241 210 0.5547 -0.83205<-52.3498 248.783>
LayerCount: 2
Fore
SplineSet
60 550 m 1
 144 550 l 1
 144 338 l 1
 310 550 l 1
 412 550 l 1
 224 311 l 1
 262 301 283 289 307 253 c 2
 307 253 431 49 473 0 c 1
 376 0 l 1
 352 23 241 210 241 210 c 2
 228 231 198 244 171 244 c 3
 162 244 153 243 144 241 c 1
 144 0 l 1
 60 0 l 1
 60 550 l 1
EndSplineSet
EndChar

StartChar: uni043B
Encoding: 1083 1083 429
Width: 560
Flags: W
HStem: 0 21G<416 500> 471 79<165 416>
VStem: 81 84<97.0963 471> 416 84<0 471>
LayerCount: 2
Fore
SplineSet
500 550 m 1
 500 0 l 1
 416 0 l 1
 416 471 l 1
 165 471 l 1
 165 166 l 2
 165 37 78 -10 24 -28 c 1
 -8 50 l 1
 36 62 81 95 81 166 c 2
 81 550 l 1
 81 550 361 550 500 550 c 1
EndSplineSet
Validated: 1
EndChar

StartChar: uni043C
Encoding: 1084 1084 430
Width: 849
Flags: W
HStem: 0 21G<60 144 284.429 362.63 504 588>
VStem: 60 84<0 354> 504 84<0 355>
DStem2: 144 550 146 343 0.390494 -0.920606<180.048 463.387>
LayerCount: 2
Fore
SplineSet
144 0 m 1
 60 0 l 1
 60 550 l 1
 144 550 l 1
 323 128 l 1
 324 123 l 1
 324 128 l 1
 504 550 l 1
 588 550 l 1
 588 0 l 1
 504 0 l 1
 504 343 l 1
 505 355 l 1
 502 343 l 1
 354 0 l 1
 293 0 l 1
 146 343 l 1
 143 354 l 1
 144 343 l 1
 144 0 l 1
EndSplineSet
Validated: 1
EndChar

StartChar: uni043D
Encoding: 1085 1085 431
Width: 571
Flags: W
HStem: 0 21G<60 144 427 511> 250 69<144 427>
VStem: 60 84<0 250 319 550> 427 84<0 250 319 550>
LayerCount: 2
Fore
SplineSet
144 0 m 1
 60 0 l 1
 60 550 l 1
 144 550 l 1
 144 319 l 1
 427 319 l 1
 427 550 l 1
 511 550 l 1
 511 0 l 1
 427 0 l 1
 427 250 l 1
 144 250 l 1
 144 0 l 1
EndSplineSet
Validated: 1
EndChar

StartChar: uni043F
Encoding: 1087 1087 432
Width: 558
Flags: W
HStem: 0 21G<60 144 414 498> 471 79<144 414>
VStem: 60 84<0 471> 414 84<0 471>
LayerCount: 2
Fore
SplineSet
144 0 m 1
 60 0 l 25
 60 550 l 1
 60 550 352 550 498 550 c 1
 498 0 l 1
 414 0 l 1
 414 471 l 1
 144 471 l 1
 144 0 l 1
EndSplineSet
Validated: 1
EndChar

StartChar: uni0442
Encoding: 1090 1090 433
Width: 419
Flags: W
HStem: 0 21G<166 250> 471 79<5 166 250 414>
VStem: 166 84<0 471>
LayerCount: 2
Fore
SplineSet
5 471 m 1
 5 550 l 1
 414 550 l 1
 414 471 l 1
 250 471 l 1
 250 0 l 1
 166 0 l 1
 166 471 l 1
 5 471 l 1
EndSplineSet
Validated: 1
EndChar

StartChar: uni0444
Encoding: 1092 1092 434
Width: 994
Flags: W
HStem: -12 82<215.472 365.73 628.27 778.528> 480 82<198.902 341.751 652.249 795.098>
VStem: 54 84<163.493 399.48> 456 82<-250 64 136.11 380.564 458 750> 856 84<163.493 399.48>
CounterMasks: 1 38
LayerCount: 2
Fore
SplineSet
252 480 m 3
 182 480 138 385 138 284 c 3
 138 149 196 70 285 70 c 3
 337 70 407 107 456 156 c 1
 456 350 l 1
 424 400 356 480 252 480 c 3
538 -250 m 1
 456 -250 l 1
 456 64 l 1
 400 19 335 -12 285 -12 c 3
 142 -12 54 97 54 284 c 3
 54 429 130 562 252 562 c 3
 342 562 411 516 456 458 c 1
 456 750 l 1
 538 750 l 1
 538 458 l 1
 583 516 652 562 742 562 c 3
 864 562 940 429 940 284 c 3
 940 97 852 -12 709 -12 c 3
 659 -12 594 19 538 64 c 1
 538 -250 l 1
742 480 m 3
 638 480 570 400 538 350 c 1
 538 156 l 1
 587 107 657 70 709 70 c 3
 798 70 856 149 856 284 c 3
 856 385 812 480 742 480 c 3
EndSplineSet
Validated: 1
EndChar

StartChar: uni0446
Encoding: 1094 1094 435
Width: 558
Flags: W
HStem: 0 79<144 414>
VStem: 60 84<79 550> 414 84<79 550> 472 79<-100 0>
LayerCount: 2
Fore
SplineSet
144 550 m 1xd0
 144 79 l 1
 414 79 l 1
 414 550 l 1
 498 550 l 1
 498 79 l 1xe0
 551 79 l 1
 551 -100 l 1
 472 -100 l 1
 472 0 l 1
 60 0 l 1
 60 550 l 1
 144 550 l 1xd0
EndSplineSet
Validated: 1
EndChar

StartChar: uni0447
Encoding: 1095 1095 436
Width: 499
VWidth: 0
Flags: W
HStem: 0 21G<355 439> 160 79<165.467 316.996>
VStem: 35 84<290.059 550> 355 84<0 197 270.894 550>
LayerCount: 2
Fore
SplineSet
35 550 m 1
 119 550 l 1
 119 380 l 2
 119 285 165 239 233 239 c 3
 279 239 320 257 355 286 c 1
 355 550 l 1
 439 550 l 1
 439 0 l 1
 355 0 l 1
 355 197 l 1
 324 177 287 160 236 160 c 3
 111 160 35 236 35 380 c 2
 35 550 l 1
EndSplineSet
Validated: 1
EndChar

StartChar: uni0448
Encoding: 1096 1096 437
Width: 668
Flags: W
HStem: 0 78<144 292 376 524>
VStem: 60 84<78 550> 292 84<78 550> 524 84<78 550>
CounterMasks: 1 70
LayerCount: 2
Fore
SplineSet
144 550 m 1
 144 78 l 1
 292 78 l 1
 292 550 l 1
 376 550 l 1
 376 78 l 1
 524 78 l 1
 524 550 l 1
 608 550 l 1
 608 0 l 1
 60 0 l 1
 60 550 l 1
 144 550 l 1
EndSplineSet
Validated: 1
EndChar

StartChar: uni0449
Encoding: 1097 1097 438
Width: 668
Flags: W
HStem: 0 79<144 292 376 524>
VStem: 60 84<79 550> 292 84<79 550> 524 84<79 550> 582 79<-100 0>
LayerCount: 2
Fore
SplineSet
144 550 m 1xe8
 144 79 l 1
 292 79 l 1
 292 550 l 1
 376 550 l 1
 376 79 l 1
 524 79 l 1
 524 550 l 1
 608 550 l 1
 608 79 l 1xf0
 661 79 l 1
 661 -100 l 1
 582 -100 l 1
 582 0 l 1
 60 0 l 1
 60 550 l 1
 144 550 l 1xe8
EndSplineSet
Validated: 1
EndChar

StartChar: uni044A
Encoding: 1098 1098 439
Width: 533
Flags: W
HStem: 0 78<201 369.765> 289 78<201 364.203> 471 79<0 117>
VStem: 117 84<78 289 367 471> 408 81<115.623 247.666>
LayerCount: 2
Fore
SplineSet
310 367 m 2
 472 367 489 233 489 184 c 3
 489 135 472 0 301 0 c 2
 117 0 l 1
 117 471 l 1
 0 471 l 1
 0 550 l 1
 201 550 l 1
 201 367 l 1
 310 367 l 2
201 289 m 1
 201 78 l 1
 301 78 l 2
 390 78 408 148 408 184 c 3
 408 218 381 289 310 289 c 2
 201 289 l 1
EndSplineSet
Validated: 1
EndChar

StartChar: uni044B
Encoding: 1099 1099 440
Width: 629
Flags: W
HStem: 0 78<144 312.765> 289 78<144 307.203>
VStem: 60 84<78 289 367 550> 351 81<115.623 247.666> 485 84<0 550>
LayerCount: 2
Fore
SplineSet
569 0 m 1
 485 0 l 1
 485 550 l 1
 569 550 l 1
 569 0 l 1
253 367 m 2
 415 367 432 233 432 184 c 3
 432 135 415 0 244 0 c 2
 60 0 l 1
 60 550 l 1
 144 550 l 1
 144 367 l 1
 253 367 l 2
144 289 m 1
 144 78 l 1
 244 78 l 2
 333 78 351 148 351 184 c 3
 351 218 324 289 253 289 c 2
 144 289 l 1
EndSplineSet
Validated: 1
EndChar

StartChar: uni044C
Encoding: 1100 1100 441
Width: 476
Flags: W
HStem: 0 78<144 312.765> 289 78<144 307.203>
VStem: 60 84<78 289 367 550> 351 81<115.623 247.666>
LayerCount: 2
Fore
SplineSet
253 367 m 2
 415 367 432 233 432 184 c 3
 432 135 415 0 244 0 c 2
 60 0 l 1
 60 550 l 1
 144 550 l 1
 144 367 l 1
 253 367 l 2
144 289 m 1
 144 78 l 1
 244 78 l 2
 333 78 351 148 351 184 c 3
 351 218 324 289 253 289 c 2
 144 289 l 1
EndSplineSet
Validated: 1
EndChar

StartChar: uni044D
Encoding: 1101 1101 442
Width: 472
Flags: W
HStem: -12 68<108.389 262.296> 244 68<152 350> 493 69<119.043 259.216>
VStem: 354 84<163.686 244 312 375.484>
LayerCount: 2
Back
SplineSet
377 312 m 1
 377 244 l 1
 152 244 l 1
 152 312 l 1
 377 312 l 1
35 487 m 1
 35 487 78 562 194 562 c 3
 319.267857143 562 438 458 438 259 c 3
 438 104 337.598173516 -12 199 -12 c 3
 78 -12 32 46 14 69 c 1
 62 117 l 1
 70.4893617021 106.515625 107.276595745 56 195 56 c 3
 281 56 354 154.219626168 354 259 c 3
 354 405 274 493 195 493 c 3
 116.694915254 493 85 439 85 439 c 1
 35 487 l 1
EndSplineSet
Fore
SplineSet
35 487 m 1
 35 487 78 562 194 562 c 3
 319 562 438 458 438 259 c 3
 438 104 338 -12 199 -12 c 3
 78 -12 32 46 14 69 c 1
 62 117 l 1
 70 107 107 56 195 56 c 3
 277 56 347 145 354 244 c 1
 152 244 l 1
 152 312 l 1
 350 312 l 1
 333 426 264 493 195 493 c 3
 117 493 85 439 85 439 c 1
 35 487 l 1
EndSplineSet
Validated: 1
EndChar

StartChar: uni044E
Encoding: 1102 1102 443
Width: 871
Flags: W
HStem: -12 68<372.675 494.533> 0 21G<60 144> 246 68<144 223.232> 493 69<372.887 493.257>
VStem: 60 84<0 246 314 551> 222 83<145.446 246 314 405.292> 561 84<142.398 406.5>
LayerCount: 2
Back
SplineSet
144 0 m 1
 60 0 l 1
 60 551 l 1
 144 551 l 1
 144 314 l 1
 248 314 l 1
 248 246 l 1
 144 246 l 1
 144 0 l 1
431 562 m 3
 560.717277487 562 645 448 645 276 c 3
 645 100 567.445595855 -12 431 -12 c 3
 304.333333333 -12 221 100 221 275 c 3
 221 450 303.146596859 562 431 562 c 3
431 493 m 3
 344.890625 493 305 390.620689655 305 276 c 3
 305 156.987124464 346 56 431 56 c 3
 523 56 561 156.974137931 561 275 c 3
 561 388.733905579 521.9375 493 431 493 c 3
EndSplineSet
Fore
SplineSet
431 493 m 3xbe
 345 493 305 391 305 276 c 3
 305 157 346 56 431 56 c 3
 523 56 561 157 561 275 c 3
 561 389 522 493 431 493 c 3xbe
431 562 m 3
 561 562 645 448 645 276 c 3
 645 100 567 -12 431 -12 c 3xbe
 311 -12 231 88 222 246 c 1
 144 246 l 1
 144 0 l 1
 60 0 l 1x7e
 60 551 l 1
 144 551 l 1
 144 314 l 1
 222 314 l 1
 233 466 313 562 431 562 c 3
EndSplineSet
Validated: 1
EndChar

StartChar: uni044F
Encoding: 1103 1103 444
Width: 511
Flags: W
HStem: 0 21G<7 139.5 367 451> 225 66<271.319 367> 493 69<186.325 345.65>
VStem: 71 84<329.875 463.161> 367 84<0 225 291 471.033 529 551>
LayerCount: 2
Fore
SplineSet
367 0 m 1
 367 225 l 1
 309 225 l 1
 233 203 176 48 103 0 c 1
 7 0 l 1
 7 1 l 1
 86 53 132 180 195 230 c 1
 133 243 71 289 71 405 c 3
 71 502 142 562 246 562 c 3
 291 562 329 553 367 529 c 1
 367 551 l 1
 451 551 l 1
 451 0 l 1
 367 0 l 1
261 291 m 2
 367 291 l 1
 367 458 l 1
 332 482 298 493 256 493 c 3
 194 493 155 459 155 405 c 3
 155 314 215 292 261 291 c 2
EndSplineSet
Validated: 1
EndChar

StartChar: uni0472
Encoding: 1138 1138 445
Width: 755
Flags: W
HStem: -15 76<286.323 472.04> 362 75<149 606> 710 75<289.752 469.623>
VStem: 59 88<232.967 362 437 537.235> 608 88<232.022 362 437 537.565>
LayerCount: 2
Back
SplineSet
380 785 m 3
 527 785 696 695.001618119 696 386 c 3
 696 71 535 -15 377 -15 c 3
 230 -15 59 70 59 384 c 3
 59 697 230 785 380 785 c 3
380 710 m 3
 276 710 147 631 147 386 c 3
 147 137 276 61 377 61 c 3
 487 61 608 135.997983879 608 384 c 3
 608 628 487 710 380 710 c 3
120 437 m 1
 640 437 l 1
 640 362 l 1
 120 362 l 1
 120 437 l 1
EndSplineSet
Fore
SplineSet
380 785 m 0
 527 785 696 695 696 386 c 0
 696 71 535 -15 377 -15 c 0
 230 -15 59 70 59 384 c 0
 59 697 230 785 380 785 c 0
606 437 m 1
 590 640 479 710 380 710 c 0
 284 710 166 642 149 437 c 1
 606 437 l 1
608 362 m 1
 147 362 l 1
 155 132 279 61 377 61 c 0
 484 61 601 132 608 362 c 1
EndSplineSet
Validated: 1
EndChar

StartChar: uni0473
Encoding: 1139 1139 446
Width: 586
VWidth: 0
Flags: W
HStem: -12 68<220.895 366.628> 250 68<140 446> 493 69<219.342 365.196>
VStem: 54 85<152.89 250 318 399.344> 447 85<154.893 250 318 393.905>
LayerCount: 2
Back
SplineSet
100 318 m 1
 480 318 l 1
 480 250 l 1
 100 250 l 1
 100 318 l 1
54 275 m 3
 54 485 173 562 293 562 c 3
 413 562 532 484 532 275 c 3
 532 63 413 -12 293 -12 c 3
 173 -12 54 58 54 275 c 3
448 275 m 3
 448 430 369 493 293 493 c 3
 217 493 138 435 138 275 c 3
 138 117 217 56 293 56 c 3
 369 56 448 114 448 275 c 3
EndSplineSet
Fore
SplineSet
54 275 m 3
 54 485 173 562 293 562 c 3
 413 562 532 484 532 275 c 3
 532 63 413 -12 293 -12 c 3
 173 -12 54 58 54 275 c 3
139 250 m 1
 147 111 221 56 293 56 c 3
 365 56 439 108 447 250 c 1
 139 250 l 1
446 318 m 1
 433 442 362 493 293 493 c 3
 224 493 153 446 140 318 c 1
 446 318 l 1
EndSplineSet
Validated: 1
EndChar

StartChar: uni04AF
Encoding: 1199 1199 448
Width: 645
VWidth: 0
Flags: W
VStem: 263 84<-260 44>
DStem2: 109 550 16 550 0.438669 -0.898649<0 449.911>
LayerCount: 2
Fore
SplineSet
16 550 m 1
 109 550 l 1
 307 146 l 1
 396 323 505 533 530 550 c 1
 631 550 l 1
 601 527 585 504 347 44 c 1
 347 -260 l 1
 263 -260 l 1
 263 44 l 1
 16 550 l 1
EndSplineSet
Validated: 1
EndChar

StartChar: uni0402
Encoding: 1026 1026 451
Width: 805
Flags: W
HStem: -12 76<418.957 586.973> 0 21G<202 290> 366 71<290 570.759> 694 76<7 202 290 569>
VStem: 202 88<0 366 437 694> 660 86<134.46 293.111>
LayerCount: 2
Back
SplineSet
467 366 m 1xe8
 467 437 l 1
 579 437 677 451 677 570 c 3
 677 681 610 700 517 700 c 3
 400 700 352 623 352 623 c 1
 296 670 l 1
 296 670 356 775 518 775 c 3
 654 775 762 726 762 568 c 3xf0
 762 487 729 439 684 410 c 1
 778 365.590163934 796 271.606557377 796 221 c 3
 796 159.414096916 796 -12 532 -12 c 3
 364 -12 300 69 275 101 c 1
 330 156 l 1
 342 140 399 64 532 64 c 3
 707 64 710 164.854304636 710 221 c 3
 710 259.597122302 683 366 467 366 c 1xe8
EndSplineSet
Fore
SplineSet
7 694 m 1x7c
 7 770 l 1
 569 770 l 1
 569 694 l 1
 290 694 l 1
 290 437 l 1
 437 437 l 2
 623 437 746 395 746 216 c 0
 746 95 666 -12 502 -12 c 0
 447 -12 396 6 357 28 c 1
 405 93 l 1
 428 79 478 64 502 64 c 0xbc
 607 64 660 133 660 216 c 0
 660 318 585 366 437 366 c 2
 290 366 l 1
 290 0 l 1
 202 0 l 1
 202 694 l 1
 7 694 l 1x7c
EndSplineSet
EndChar

StartChar: uni0404
Encoding: 1028 1028 453
Width: 642
Flags: W
HStem: -15 79<292.54 478.427> 701 84<288.998 467.844>
VStem: 59 90<238.964 351 427 515.349>
LayerCount: 2
Fore
SplineSet
593 680 m 1
 593 680 533 785 371 785 c 3
 211 785 59 640 59 363 c 3
 59 147 188 -15 365 -15 c 3
 533 -15 597 66 622 98 c 1
 567 153 l 1
 555 137 500 64 370 64 c 3
 253 64 154 189 149 351 c 1
 430 351 l 1
 430 427 l 1
 152 427 l 1
 171 610 271 701 370 701 c 3
 487 701 535 624 535 624 c 1
 593 680 l 1
EndSplineSet
EndChar

StartChar: uni0409
Encoding: 1033 1033 458
Width: 998
Flags: W
HStem: 0 76<575 777.084> 371 76<575 776.582> 694 76<201 487>
VStem: 113 88<116.971 694> 487 88<76 371 447 694> 853 86<144.233 302.776>
LayerCount: 2
Fore
SplineSet
675 0 m 2
 487 0 l 1
 487 694 l 1
 201 694 l 1
 201 203 l 2
 201 42 89 -17 21 -39 c 1
 -11 40 l 1
 50 57 113 104 113 203 c 2
 113 770 l 1
 575 770 l 1
 575 447 l 1
 688 447 l 2
 929 447 939 293 939 237 c 3
 939 174 929 0 675 0 c 2
575 371 m 1
 575 76 l 1
 675 76 l 2
 840 76 853 179 853 237 c 3
 853 273 825 371 688 371 c 2
 575 371 l 1
EndSplineSet
EndChar

StartChar: uni040A
Encoding: 1034 1034 459
Width: 1019
Flags: W
HStem: 0 76<596 798.084> 371 76<172 508 596 797.582>
VStem: 84 88<0 371 447 770> 508 88<76 371 447 770> 874 86<144.233 302.776>
LayerCount: 2
Fore
SplineSet
696 0 m 2
 508 0 l 1
 508 371 l 1
 172 371 l 1
 172 0 l 1
 84 0 l 1
 84 770 l 1
 172 770 l 1
 172 447 l 1
 508 447 l 1
 508 770 l 1
 596 770 l 1
 596 447 l 1
 709 447 l 2
 950 447 960 293 960 237 c 3
 960 174 950 0 696 0 c 2
596 371 m 1
 596 76 l 1
 696 76 l 2
 861 76 874 179 874 237 c 3
 874 273 846 371 709 371 c 2
 596 371 l 1
EndSplineSet
EndChar

StartChar: uni040B
Encoding: 1035 1035 460
Width: 742
Flags: W
HStem: 0 21G<202 290 590 676> 371 76<290 513.582> 694 76<7 202 290 549>
VStem: 202 88<0 371 447 694> 590 86<0 301.9>
LayerCount: 2
Fore
SplineSet
676 237 m 2
 676 0 l 1
 590 0 l 1
 590 237 l 2
 590 273 562 371 425 371 c 2
 290 371 l 1
 290 0 l 1
 202 0 l 1
 202 694 l 1
 7 694 l 1
 7 770 l 1
 549 770 l 1
 549 694 l 1
 290 694 l 1
 290 447 l 1
 425 447 l 2
 666 447 676 293 676 237 c 2
EndSplineSet
EndChar

StartChar: uni040E
Encoding: 1038 1038 463
Width: 513
Flags: W
HStem: 0 83<24 74.9303> 771 64<153.865 272.368>
VStem: 53 61<874.259 920> 308 60<870.888 920>
DStem2: 31 770 -74 770 0.383084 -0.923713<0 463.764> 135 163 212 118 0.399343 0.916802<-65.1069 54.6256 195.774 659.13>
LayerCount: 2
Fore
SplineSet
212 118 m 2
 182 49 102 3 24 0 c 1
 -4 83 l 1
 59 88 113 114 135 163 c 2
 157 213 l 1
 -74 770 l 1
 31 770 l 1
 212 343 l 1
 392 770 l 1
 496 770 l 1
 212 118 l 2
EndSplineSet
Refer: 167 728 N 1 0 0 1 -6 170 2
EndChar

StartChar: uni040F
Encoding: 1039 1039 464
Width: 722
Flags: W
HStem: 0 76<172 323 399 550>
VStem: 84 88<76 770> 323 76<-140 0> 550 88<76 770>
CounterMasks: 1 70
LayerCount: 2
Fore
SplineSet
172 770 m 1
 172 76 l 1
 550 76 l 1
 550 770 l 1
 638 770 l 1
 638 0 l 1
 399 0 l 1
 399 -140 l 1
 323 -140 l 1
 323 0 l 1
 84 0 l 1
 84 770 l 1
 172 770 l 1
EndSplineSet
EndChar

StartChar: uni0452
Encoding: 1106 1106 467
Width: 604
Flags: W
HStem: -132 68<263.786 402.743> 0 21G<84 168> 438 84<316.078 440.027> 621 79<5 84 168 414>
VStem: 84 84<0 328.998 404 621 700 820> 451 84<-5.01562 430.174>
LayerCount: 2
Fore
SplineSet
535 79 m 2
 535 -42 460 -132 356 -132 c 3
 291 -132 242 -115 211 -91 c 1
 256 -37 l 1
 274 -52 309 -64 352 -64 c 3
 406 -64 451 5 451 79 c 2
 451 351 l 2
 451 405 439 438 408 438 c 3
 304 438 214 355 168 307 c 1
 168 0 l 1
 84 0 l 1
 84 621 l 1
 5 621 l 1
 5 700 l 1
 84 700 l 1
 84 820 l 1
 168 820 l 1
 168 700 l 1
 414 700 l 1
 414 621 l 1
 168 621 l 1
 168 404 l 1
 229 463 318 522 408 522 c 3
 499 522 535 457 535 351 c 2
 535 79 l 2
EndSplineSet
EndChar

StartChar: uni0454
Encoding: 1108 1108 469
Width: 472
Flags: W
HStem: -12 68<209.704 363.611> 493 69<212.784 352.957>
VStem: 34 84<163.686 244 312 375.484>
LayerCount: 2
Fore
SplineSet
437 487 m 1
 437 487 394 562 278 562 c 3
 153 562 34 458 34 259 c 3
 34 104 134 -12 273 -12 c 3
 394 -12 440 46 458 69 c 1
 410 117 l 1
 402 107 365 56 277 56 c 3
 195 56 125 145 118 244 c 1
 320 244 l 1
 320 312 l 1
 122 312 l 1
 139 426 208 493 277 493 c 3
 355 493 387 439 387 439 c 1
 437 487 l 1
EndSplineSet
EndChar

StartChar: uni0459
Encoding: 1113 1113 474
Width: 560
Flags: W
HStem: 0 78<451 599.765> 289 78<451 594.203> 471 80<165 366>
VStem: 81 84<97.0963 471> 366 85<78 289 367 471> 638 81<115.623 247.666>
LayerCount: 2
Fore
SplineSet
531 0 m 2
 366 0 l 1
 366 471 l 1
 165 471 l 1
 165 166 l 2
 165 37 78 -10 24 -28 c 1
 -8 50 l 1
 36 62 81 95 81 166 c 2
 81 551 l 1
 451 551 l 1
 451 367 l 1
 540 367 l 2
 702 367 719 233 719 184 c 3
 719 135 702 0 531 0 c 2
451 289 m 1
 451 78 l 1
 531 78 l 2
 620 78 638 148 638 184 c 3
 638 218 611 289 540 289 c 2
 451 289 l 1
EndSplineSet
EndChar

StartChar: uni045A
Encoding: 1114 1114 475
Width: 803
Flags: W
HStem: 0 78<471 639.765> 250 69<144 387> 289 78<471 634.203>
VStem: 60 84<0 250 319 551> 387 84<78 250 367 551> 678 81<115.623 247.666>
LayerCount: 2
Fore
SplineSet
571 0 m 2xbc
 387 0 l 1
 387 250 l 1
 144 250 l 1
 144 0 l 1
 60 0 l 1
 60 551 l 1
 144 551 l 1
 144 319 l 1
 387 319 l 1xdc
 387 551 l 1
 471 551 l 1
 471 367 l 1
 580 367 l 2
 742 367 759 233 759 184 c 3
 759 135 742 0 571 0 c 2xbc
471 289 m 1xbc
 471 78 l 1
 571 78 l 2
 660 78 678 148 678 184 c 3
 678 218 651 289 580 289 c 2
 471 289 l 1xbc
EndSplineSet
EndChar

StartChar: uni045B
Encoding: 1115 1115 476
Width: 604
Flags: W
HStem: 0 21G<84 168 451 535> 478 84<316.078 440.027> 621 79<5 84 168 414>
VStem: 84 84<0 368.998 444 621 700 820> 451 84<0 470.174>
LayerCount: 2
Fore
SplineSet
168 0 m 1
 84 0 l 1
 84 621 l 1
 5 621 l 1
 5 700 l 1
 84 700 l 1
 84 820 l 1
 168 820 l 1
 168 700 l 1
 414 700 l 1
 414 621 l 1
 168 621 l 1
 168 444 l 1
 229 503 318 562 408 562 c 3
 499 562 535 497 535 391 c 2
 535 0 l 1
 451 0 l 1
 451 391 l 2
 451 445 439 478 408 478 c 3
 304 478 214 395 168 347 c 1
 168 0 l 1
EndSplineSet
EndChar

StartChar: uni045F
Encoding: 1119 1119 480
Width: 558
Flags: W
HStem: 0 79<144 239 319 414>
VStem: 60 84<79 550> 239 80<-100 0> 414 84<79 550>
CounterMasks: 1 70
LayerCount: 2
Fore
SplineSet
144 550 m 1
 144 79 l 1
 414 79 l 1
 414 550 l 1
 498 550 l 1
 498 0 l 1
 319 0 l 1
 319 -100 l 1
 239 -100 l 1
 239 0 l 1
 60 0 l 1
 60 550 l 1
 144 550 l 1
EndSplineSet
EndChar

StartChar: dcaron
Encoding: 271 271 481
Width: 701
Flags: HW
LayerCount: 2
Fore
SplineSet
254 -8 m 0
 132 -8 54 121 54 266 c 0
 54 453 144 562 287 562 c 0
 341 562 401 535 458 486 c 1
 458 820 l 1
 542 820 l 1
 542 132 l 1
 542 132 542 59 600 40 c 1
 547 -14 l 1
 478 11 467 62 463 93 c 1
 410 33 340 -8 254 -8 c 0
254 73 m 0
 360 73 426 155 458 206 c 1
 458 389 l 1
 403 443 339 480 287 480 c 0
 198 480 140 401 140 266 c 0
 140 165 184 73 254 73 c 0
614 714 m 0
 614 746 638 769 670 769 c 0
 713 769 731 733 731 687 c 0
 731 632 704 569 662 517 c 1
 616 542 l 1
 645 578 667 614 674 658 c 1
 638 658 614 682 614 714 c 0
EndSplineSet
EndChar

StartChar: tcaron
Encoding: 357 357 482
Width: 701
Flags: HW
LayerCount: 2
Fore
SplineSet
254 -8 m 0
 132 -8 54 121 54 266 c 0
 54 453 144 562 287 562 c 0
 341 562 401 535 458 486 c 1
 458 820 l 1
 542 820 l 1
 542 132 l 1
 542 132 542 59 600 40 c 1
 547 -14 l 1
 478 11 467 62 463 93 c 1
 410 33 340 -8 254 -8 c 0
254 73 m 0
 360 73 426 155 458 206 c 1
 458 389 l 1
 403 443 339 480 287 480 c 0
 198 480 140 401 140 266 c 0
 140 165 184 73 254 73 c 0
614 714 m 0
 614 746 638 769 670 769 c 0
 713 769 731 733 731 687 c 0
 731 632 704 569 662 517 c 1
 616 542 l 1
 645 578 667 614 674 658 c 1
 638 658 614 682 614 714 c 0
EndSplineSet
EndChar

